{
  "accessors": [
    {
      "bufferView": 0,
      "componentType": 5125,
      "count": 3024,
      "type": "SCALAR"
    },
    {
      "bufferView": 1,
      "componentType": 5126,
      "count": 764,
      "max": [
        0.003551665343804522,
        -0.021543309994725285,
        0.0035538022068592515
      ],
      "min": [
        -0.003553729898531255,
        -0.05555905622156762,
        -0.0035538022068592515
      ],
      "type": "VEC3"
    },
    {
      "bufferView": 2,
      "componentType": 5126,
      "count": 764,
      "max": [
        0.9997758973510241,
        1.0,
        0.9996891820008162
      ],
      "min": [
        -1.0,
        -1.0,
        -0.9996891820008162
      ],
      "type": "VEC3"
    },
    {
      "bufferView": 3,
      "componentType": 5126,
      "count": 764,
      "max": [
        1.0,
        0.49844658047366563
      ],
      "min": [
        0.0,
        0.0
      ],
      "type": "VEC2"
    },
    {
      "bufferView": 4,
      "componentType": 5125,
      "count": 3780,
      "type": "SCALAR"
    },
    {
      "bufferView": 5,
      "componentType": 5126,
      "count": 955,
      "max": [
        0.005212505153919023,
        0.05555905623951936,
        0.005214125798067107
      ],
      "min": [
        -0.005212505153919023,
        -0.05555905623951937,
        -0.005214125798067107
      ],
      "type": "VEC3"
    },
    {
      "bufferView": 6,
      "componentType": 5126,
      "count": 955,
      "max": [
        0.999770486999643,
        1.0,
        0.9996891820008162
      ],
      "min": [
        -1.0,
        -1.0,
        -0.9996891820008162
      ],
      "type": "VEC3"
    },
    {
      "bufferView": 7,
      "componentType": 5126,
      "count": 955,
      "max": [
        1.0,
        0.3934703653455787
      ],
      "min": [
        0.0,
        0.0
      ],
      "type": "VEC2"
    }
  ],
  "asset": {
    "generator": "Adobe Illustrator",
    "version": "2.0"
  },
  "bufferViews": [
    {
      "buffer": 0,
      "byteLength": 12096,
      "target": 34963
    },
    {
      "buffer": 0,
      "byteLength": 9168,
      "byteOffset": 12096,
      "target": 34962
    },
    {
      "buffer": 0,
      "byteLength": 9168,
      "byteOffset": 21264,
      "target": 34962
    },
    {
      "buffer": 0,
      "byteLength": 6112,
      "byteOffset": 30432,
      "target": 34962
    },
    {
      "buffer": 0,
      "byteLength": 15120,
      "byteOffset": 36544,
      "target": 34963
    },
    {
      "buffer": 0,
      "byteLength": 11460,
      "byteOffset": 51664,
      "target": 34962
    },
    {
      "buffer": 0,
      "byteLength": 11460,
      "byteOffset": 63124,
      "target": 34962
    },
    {
      "buffer": 0,
      "byteLength": 7640,
      "byteOffset": 74584,
      "target": 34962
    }
  ],
  "buffers": [
    {
      "byteLength": 82224,
      "uri": "data:application/octet-stream;base64,"
    }
  ],
  "materials": [
    {
      "doubleSided": true,
      "pbrMetallicRoughness": {
        "baseColorFactor": [
          0.5,
          0.5,
          0.7,
          1.0
        ],
        "metallicFactor": 0.0,
        "roughnessFactor": 0.0
      }
    },
    {
      "doubleSided": false,
      "pbrMetallicRoughness": {
        "baseColorFactor": [
          0.8828125,
          0.71484375,
          0.5078125,
          1.0
        ],
        "metallicFactor": 0.19985857605934143,
        "roughnessFactor": 0.0
      }
    }
  ],
  "meshes": [
    {
      "primitives": [
        {
          "attributes": {
            "NORMAL": 2,
            "POSITION": 1,
            "TEXCOORD_0": 3
          },
          "indices": 0,
          "material": 0,
          "mode": 4
        }
      ]
    },
    {
      "primitives": [
        {
          "attributes": {
            "NORMAL": 6,
            "POSITION": 5,
            "TEXCOORD_0": 7
          },
          "indices": 4,
          "material": 1,
          "mode": 4
        }
      ]
    }
  ],
  "nodes": [
    {
      "mesh": 0
    },
    {
      "mesh": 1
    }
  ],
  "scenes": [
    {
      "nodes": [
        0,
        1
      ]
    }
  ]
}
