<?xml version="1.0" encoding="UTF-8"?><svg id="Layer_2" xmlns="http://www.w3.org/2000/svg" viewBox="0 0 273.17787 57.06458"><g id="ARTWORK"><path d="m.32952,34.85777v13.43756c90.46945,2.98801,179.89996,6.17258,266.30786,8.5513,8.43335-8.43335,8.43335-22.10657,0-30.53992C180.22949,28.68535,90.79897,31.86986.32952,34.85777Z" fill="#cee9dd"/><path d="m.32952,34.85777v13.43756c90.46945,2.98801,179.89996,6.17258,266.30786,8.5513,8.43335-8.43335,8.43335-22.10657,0-30.53992C180.22949,28.68535,90.79897,31.86986.32952,34.85777Z" fill="none" stroke="#231f20" stroke-miterlimit="10" stroke-width=".43095"/><line x1="63.85251" y1="32.81823" x2="63.85251" y2="50.33511" fill="none" stroke="#231f20" stroke-miterlimit="10" stroke-width=".43095"/><polyline points=".32953 27.53751 .32953 13.21065 266.6374 13.21065 266.6374 20.5196" fill="none" stroke="#b0ccc2" stroke-miterlimit="10" stroke-width=".43095"/><text transform="translate(120.16363 15.97808)" fill="#231f20" font-family="SFMono-Regular, &apos;SF Mono&apos;" font-size="8.61904"><tspan x="0" y="0">109mm</tspan></text><line x1=".73776" y1="41.57667" x2="63.32205" y2="41.57667" fill="none" stroke="#b0ccc2" stroke-miterlimit="10" stroke-width=".43095"/><text transform="translate(21.37359 44.3443)" fill="#231f20" font-family="SFMono-Regular, &apos;SF Mono&apos;" font-size="8.61904"><tspan x="0" y="0">26mm</tspan></text><text transform="translate(245.32574 8.53784)" fill="#231f20" font-family="SFMono-Regular, &apos;SF Mono&apos;" font-size="8.61904"><tspan x="0" y="0">1.1g</tspan></text><text transform="translate(.32965 8.53784)" fill="#231f20" font-family="SFMono-Bold, &apos;SF Mono&apos;" font-size="8.61904" font-weight="700"><tspan x="0" y="0">Chalmers</tspan></text></g></svg>