<?xml version="1.0" encoding="UTF-8"?><svg id="Layer_2" xmlns="http://www.w3.org/2000/svg" viewBox="0 0 244.60392 47.52122"><g id="ARTWORK"><path d="m.30031,29.46879v13.1933c80.82812,1.66592,160.90393,3.35519,239.43286,4.64218,6.20703-6.20694,6.20703-16.27054,0-22.47748-78.52911,1.28693-158.6048,2.97614-239.43286,4.642Z" fill="#cee9dd"/><path d="m.30031,29.46879v13.1933c80.82812,1.66592,160.90393,3.35519,239.43286,4.64218,6.20703-6.20694,6.20703-16.27054,0-22.47748-78.52911,1.28693-158.6048,2.97614-239.43286,4.642Z" fill="none" stroke="#231f20" stroke-miterlimit="10" stroke-width=".43095"/><line x1="63.8233" y1="28.2374" x2="63.8233" y2="43.89367" fill="none" stroke="#231f20" stroke-miterlimit="10" stroke-width=".43095"/><polyline points=".30032 23.94017 .30032 13.18361 239.73308 13.18361 239.73308 20.49256" fill="none" stroke="#b0ccc2" stroke-miterlimit="10" stroke-width=".43095"/><text transform="translate(106.19789 15.951)" fill="#231f20" font-family="SFMono-Regular, &apos;SF Mono&apos;" font-size="8.61904"><tspan x="0" y="0">98mm</tspan></text><line x1=".70855" y1="36.06554" x2="63.29284" y2="36.06554" fill="none" stroke="#b0ccc2" stroke-miterlimit="10" stroke-width=".43095"/><text transform="translate(21.34438 38.83284)" fill="#231f20" font-family="SFMono-Regular, &apos;SF Mono&apos;" font-size="8.61904"><tspan x="0" y="0">26mm</tspan></text><text transform="translate(218.42348 8.51066)" fill="#231f20" font-family="SFMono-Regular, &apos;SF Mono&apos;" font-size="8.61904"><tspan x="0" y="0">0.6g</tspan></text><text transform="translate(.30238 8.51066)" fill="#231f20" font-family="SFMono-Bold, &apos;SF Mono&apos;" font-size="8.61904" font-weight="700"><tspan x="0" y="0">Houten</tspan></text></g></svg>