<?xml version="1.0" encoding="UTF-8"?><svg id="Layer_2" xmlns="http://www.w3.org/2000/svg" viewBox="0 0 273.17787 54.26404"><g id="ARTWORK"><path d="m.32952,31.69101v14.17047c90.42374,2.87199,179.79871,5.90935,266.30786,8.18472,8.43335-8.43338,8.43335-22.10654,0-30.53992C180.12823,25.78167,90.75326,28.81903.32952,31.69101Z" fill="#cee9dd"/><path d="m.32952,31.69101v14.17047c90.42374,2.87199,179.79871,5.90935,266.30786,8.18472,8.43335-8.43338,8.43335-22.10654,0-30.53992C180.12823,25.78167,90.75326,28.81903.32952,31.69101Z" fill="none" stroke="#231f20" stroke-miterlimit="10" stroke-width=".43095"/><line x1="51.63655" y1="30.11413" x2="51.63655" y2="47.43836" fill="none" stroke="#231f20" stroke-miterlimit="10" stroke-width=".43095"/><polyline points=".32953 27.53751 .32953 13.21065 266.6374 13.21065 266.6374 20.5196" fill="none" stroke="#b0ccc2" stroke-miterlimit="10" stroke-width=".43095"/><text transform="translate(120.16363 15.97787)" fill="#231f20" font-family="SFMono-Regular, &apos;SF Mono&apos;" font-size="8.61904"><tspan x="0" y="0">109mm</tspan></text><line x1=".73776" y1="38.77624" x2="51.1658" y2="38.77624" fill="none" stroke="#b0ccc2" stroke-miterlimit="10" stroke-width=".43095"/><text transform="translate(15.29547 41.54379)" fill="#231f20" font-family="SFMono-Regular, &apos;SF Mono&apos;" font-size="8.61904"><tspan x="0" y="0">21mm</tspan></text><text transform="translate(245.32574 8.5372)" fill="#231f20" font-family="SFMono-Regular, &apos;SF Mono&apos;" font-size="8.61904"><tspan x="0" y="0">1.3g</tspan></text><text transform="translate(.32965 8.5372)" fill="#231f20" font-family="SFMono-Bold, &apos;SF Mono&apos;" font-size="8.61904" font-weight="700"><tspan x="0" y="0">Louie</tspan></text></g></svg>