<?xml version="1.0" encoding="UTF-8"?><svg id="Layer_2" xmlns="http://www.w3.org/2000/svg" viewBox="0 0 211.23782 51.32467"><g id="ARTWORK"><path d="m.32952,31.43901v12.94897c69.79227,2.36884,138.67407,4.85211,205.22809,6.71869,7.28632-7.28638,7.28632-19.09998,0-26.38635C139.0036,26.58696,70.12179,29.07017.32952,31.43901Z" fill="#cee9dd"/><path d="m.32952,31.43901v12.94897c69.79227,2.36884,138.67407,4.85211,205.22809,6.71869,7.28632-7.28638,7.28632-19.09998,0-26.38635C139.0036,26.58696,70.12179,29.07017.32952,31.43901Z" fill="none" stroke="#231f20" stroke-miterlimit="10" stroke-width=".43095"/><line x1="63.85251" y1="29.35941" x2="63.85251" y2="46.46756" fill="none" stroke="#231f20" stroke-miterlimit="10" stroke-width=".43095"/><polyline points=".32953 26.82843 .32953 13.21065 205.55761 13.21065 205.55761 20.5196" fill="none" stroke="#b0ccc2" stroke-miterlimit="10" stroke-width=".43095"/><text transform="translate(92.28765 15.97792)" fill="#231f20" font-family="SFMono-Regular, &apos;SF Mono&apos;" font-size="8.61904"><tspan x="0" y="0">84mm</tspan></text><line x1=".73776" y1="38.34383" x2="63.32205" y2="38.34383" fill="none" stroke="#b0ccc2" stroke-miterlimit="10" stroke-width=".43095"/><text transform="translate(21.37359 41.11171)" fill="#231f20" font-family="SFMono-Regular, &apos;SF Mono&apos;" font-size="8.61904"><tspan x="0" y="0">26mm</tspan></text><text transform="translate(184.24566 8.53728)" fill="#231f20" font-family="SFMono-Regular, &apos;SF Mono&apos;" font-size="8.61904"><tspan x="0" y="0">0.6g</tspan></text><text transform="translate(.32965 8.53728)" fill="#231f20" font-family="SFMono-Bold, &apos;SF Mono&apos;" font-size="8.61904" font-weight="700"><tspan x="0" y="0">Monroe</tspan></text></g></svg>