<?xml version="1.0" encoding="UTF-8"?><svg id="Layer_2" xmlns="http://www.w3.org/2000/svg" viewBox="0 0 297.41426 56.43093"><g id="ARTWORK"><path d="m.32952,32.63421v14.17052c98.72955,3.17781,196.85712,6.42186,293.18298,9.40645,4.91504-10.44507,4.91504-22.53812,0-32.98318C197.18658,26.21254,99.05914,29.45646.32952,32.63421Z" fill="#cee9dd"/><path d="m.32952,32.63421v14.17052c98.72955,3.17781,196.85712,6.42186,293.18298,9.40645,4.91504-10.44507,4.91504-22.53812,0-32.98318C197.18658,26.21254,99.05914,29.45646.32952,32.63421Z" fill="none" stroke="#231f20" stroke-miterlimit="10" stroke-width=".43095"/><text transform="translate(272.20074 8.53745)" fill="#231f20" font-family="SFMono-Regular, &apos;SF Mono&apos;" font-size="8.61904"><tspan x="0" y="0">1.4g</tspan></text><text transform="translate(.32965 8.53745)" fill="#231f20" font-family="SFMono-Bold, &apos;SF Mono&apos;" font-size="8.61904" font-weight="700"><tspan x="0" y="0">Sideshow</tspan></text><polyline points=".32953 27.53751 .32953 13.21065 293.51251 13.21065 293.51251 20.5196" fill="none" stroke="#b0ccc2" stroke-miterlimit="10" stroke-width=".43095"/><rect x="129.05238" y="7.55461" width="35.73728" height="11.95881" rx="5.17142" ry="5.17142" fill="#d4ece2"/><text transform="translate(133.60113 15.97827)" fill="#231f20" font-family="SFMono-Regular, &apos;SF Mono&apos;" font-size="8.61904"><tspan x="0" y="0">120mm</tspan></text><rect x="129.05238" y="7.55461" width="35.73728" height="11.95881" rx="5.17142" ry="5.17142" fill="none" stroke="#b0ccc2" stroke-miterlimit="10" stroke-width=".43095"/><line x1="1.26822" y1="39.71958" x2="63.85251" y2="39.71958" fill="none" stroke="#b0ccc2" stroke-miterlimit="10" stroke-width=".43095"/><text transform="translate(21.90484 42.48706)" fill="#231f20" font-family="SFMono-Regular, &apos;SF Mono&apos;" font-size="8.61904"><tspan x="0" y="0">26mm</tspan></text><line x1="63.85251" y1="30.59638" x2="63.85251" y2="48.84279" fill="none" stroke="#231f20" stroke-miterlimit="10" stroke-width=".40693"/></g></svg>