<?xml version="1.0" encoding="UTF-8"?><svg id="Layer_2" xmlns="http://www.w3.org/2000/svg" viewBox="0 0 244.63294 46.83487"><g id="ARTWORK"><path d="m.32952,29.14909v12.46011c80.88577,1.78653,161.00494,3.61911,239.4328,5.00861,6.20685-6.20694,6.20685-16.27036,0-22.47729-78.42786,1.38947-158.547,3.22211-239.4328,5.00858Z" fill="#cee9dd"/><path d="m.32952,29.14909v12.46011c80.88577,1.78653,161.00494,3.61911,239.4328,5.00861,6.20685-6.20694,6.20685-16.27036,0-22.47729-78.42786,1.38947-158.547,3.22211-239.4328,5.00858Z" fill="none" stroke="#231f20" stroke-miterlimit="10" stroke-width=".43095"/><line x1="73.62528" y1="27.61584" x2="73.62528" y2="43.14245" fill="none" stroke="#231f20" stroke-miterlimit="10" stroke-width=".43095"/><polyline points=".32953 23.96721 .32953 13.21065 239.76229 13.21065 239.76229 20.5196" fill="none" stroke="#b0ccc2" stroke-miterlimit="10" stroke-width=".43095"/><text transform="translate(106.22711 15.97848)" fill="#231f20" font-family="SFMono-Regular, &apos;SF Mono&apos;" font-size="8.61904"><tspan x="0" y="0">98mm</tspan></text><line x1=".73776" y1="35.37915" x2="72.89429" y2="35.37915" fill="none" stroke="#b0ccc2" stroke-miterlimit="10" stroke-width=".43095"/><text transform="translate(26.15972 38.14645)" fill="#231f20" font-family="SFMono-Regular, &apos;SF Mono&apos;" font-size="8.61904"><tspan x="0" y="0">30mm</tspan></text><text transform="translate(218.45074 8.53734)" fill="#231f20" font-family="SFMono-Regular, &apos;SF Mono&apos;" font-size="8.61904"><tspan x="0" y="0">0.5g</tspan></text><text transform="translate(.32965 8.53734)" fill="#231f20" font-family="SFMono-Bold, &apos;SF Mono&apos;" font-size="8.61904" font-weight="700"><tspan x="0" y="0">Skinner</tspan></text></g></svg>