<?xml version="1.0" encoding="UTF-8"?><svg id="Layer_2" xmlns="http://www.w3.org/2000/svg" viewBox="0 0 245.94864 53.47353"><g id="ARTWORK"><path d="m.32952,31.99989v13.68185c81.35297,2.66263,161.71332,5.46884,239.4328,7.57388,7.96112-7.96118,7.96112-20.86865,0-28.82983C162.0429,26.53086,81.68252,29.33714.32952,31.99989Z" fill="#cee9dd"/><path d="m.32952,31.99989v13.68185c81.35297,2.66263,161.71332,5.46884,239.4328,7.57388,7.96112-7.96118,7.96112-20.86865,0-28.82983C162.0429,26.53086,81.68252,29.33714.32952,31.99989Z" fill="none" stroke="#231f20" stroke-miterlimit="10" stroke-width=".43095"/><line x1="63.85251" y1="29.99028" x2="63.85251" y2="47.69115" fill="none" stroke="#231f20" stroke-miterlimit="10" stroke-width=".43095"/><polyline points=".32953 20.5196 .32953 13.21065 239.76229 13.21065 239.76229 20.5196" fill="none" stroke="#b0ccc2" stroke-miterlimit="10" stroke-width=".43095"/><text transform="translate(106.22711 15.97801)" fill="#231f20" font-family="SFMono-Regular, &apos;SF Mono&apos;" font-size="8.61904"><tspan x="0" y="0">98mm</tspan></text><line x1=".73776" y1="38.84072" x2="63.32205" y2="38.84072" fill="none" stroke="#b0ccc2" stroke-miterlimit="10" stroke-width=".43095"/><text transform="translate(21.37359 41.60789)" fill="#231f20" font-family="SFMono-Regular, &apos;SF Mono&apos;" font-size="8.61904"><tspan x="0" y="0">26mm</tspan></text><text transform="translate(218.45074 8.53748)" fill="#231f20" font-family="SFMono-Regular, &apos;SF Mono&apos;" font-size="8.61904"><tspan x="0" y="0">0.8g</tspan></text><text transform="translate(.32965 8.53748)" fill="#231f20" font-family="SFMono-Bold, &apos;SF Mono&apos;" font-size="8.61904" font-weight="700"><tspan x="0" y="0">Wiggum</tspan></text></g></svg>