<?xml version="1.0" encoding="UTF-8"?>
<svg id="b" data-name="Layer 2" xmlns="http://www.w3.org/2000/svg" viewBox="0 0 100 100">
  <g id="c" data-name="Layer 1">
    <g>
      <path d="M50.246,23.0868c-3.5831-5.7245-9.63-12.5334-21.4212-18.3905h0c11.7911,5.857,17.8378,12.6658,21.4213,18.3905Z" style="fill: none;"/>
      <path d="M28.0748,36.4588c-.4575-.0234-.921-.04-1.3978-.0417,.4769,.0017,.9404,.0183,1.3978,.0417Z" style="fill: none;"/>
      <path d="M34.7006,37.6837c-.0344-.0117-.0674-.0248-.102-.0363,.0345,.0115,.0676,.0247,.102,.0363Z" style="fill: none;"/>
      <path d="M50,50.1289c2.1816-.4615,4.6646-.8654,7.1442-1.4657-2.4799,.6001-4.9627,1.0041-7.1442,1.4657Z" style="fill: none;"/>
      <path d="M52.4135,27.9247c2.7192,8.2602,.062,15.3613-2.4135,22.2042,2.476-6.8432,5.1329-13.9438,2.4135-22.2042Z" style="fill: none;"/>
      <path d="M54.6595,55.3412c4.5064,4.6008,9.9601,8.3651,18.7572,8.3372,1.6169-.0322,3.3817-.1878,5.2868-.5177-1.9051,.33-3.6699,.4855-5.2869,.5177-8.7965,.0275-14.2506-3.7365-18.757-8.3372Z" style="fill: none;"/>
      <path d="M49.7541,77.171c-2.3949-4.2141-3.2911-8.1181-3.3143-11.8135,.0231,3.6956,.9193,7.5995,3.3142,11.8135,3.5558,5.6814,9.5389,12.4305,21.1545,18.2573,.0002,0,.0003-.0001,.0005-.0002-11.6158-5.827-17.5989-12.576-21.1549-18.2571Z" style="fill: none;"/>
      <path d="M46.4393,65.337c0-.0036,.0002-.0071,.0001-.0108,0,.0036-.0002,.0072-.0001,.0108Z" style="fill: none;"/>
      <path d="M50,50.1289c-2.6513,.561-5.7479,1.0373-8.7426,1.884,2.9953-.8463,6.0916-1.3228,8.7426-1.884Z" style="fill: none;"/>
      <path d="M79.4604,63.0209c-.2519,.0489-.5022,.0956-.7495,.1385,.2472-.0429,.4975-.0896,.7495-.1385Z" style="fill: none;"/>
      <path d="M79.4604,63.0209c-.2519,.0489-.5023,.0956-.7495,.1385-.0025,.0004-.005,.0008-.0075,.0012-1.905,.33-3.6698,.4856-5.2868,.5177-8.7971,.0279-14.2508-3.7364-18.7572-8.3372-1.64-1.6743-3.1556-3.4584-4.6595-5.2123-1.7479,4.8316-3.5872,9.7915-3.5605,15.1973,0,.0036-.0002,.0072-.0001,.0108,0,.0068,.0004,.0137,.0005,.0204,.0232,3.6955,.9194,7.5995,3.3143,11.8135,3.556,5.6811,9.5391,12.4302,21.1549,18.2571,16.0813-7.4141,27.5562-23.1128,28.9481-41.6266-7.862,5.4701-14.7239,8.1192-20.3967,9.2194Z" style="fill: #ba5dd2;"/>
      <path d="M49.754,77.171c-2.3949-4.214-3.291-8.118-3.3142-11.8135,0-.0068-.0005-.0137-.0005-.0204,0-.0036,.0002-.0071,.0001-.0108-.0268-5.4057,1.8125-10.3656,3.5605-15.1973-2.6511,.5611-5.7473,1.0377-8.7426,1.884-1.3857,.3918-2.7498,.8624-4.0376,1.4581-4.1542,1.8641-7.5484,4.973-10.4955,10.284-2.8067,5.3883-5.1617,12.9805-3.9702,25.6025,.1115,.9152,.2419,1.8571,.394,2.8264,7.7569,4.9479,16.9692,7.8161,26.8519,7.8161,7.4651,0,14.5466-1.6387,20.9085-4.5717-11.6156-5.8268-17.5987-12.5759-21.1545-18.2573Z" style="fill: #1199f6;"/>
      <path d="M46.4398,65.3574c0-.0068-.0004-.0137-.0005-.0204,0,.0068,.0004,.0137,.0005,.0204Z" style="fill: #1199f6;"/>
      <path d="M50,50.1289c-1.748,4.8318-3.5873,9.7916-3.5605,15.1973-.0267-5.4058,1.8127-10.3657,3.5605-15.1973Z" style="fill: #1199f6;"/>
      <path d="M73.2886,36.5083c-2.9484,5.3105-6.3489,8.4167-10.5063,10.2793-1.7822,.8234-3.7093,1.4087-5.6381,1.8755-2.4796,.6003-4.9626,1.0042-7.1442,1.4657,1.504,1.7538,3.0196,3.538,4.6595,5.2123,4.5064,4.6007,9.9605,8.3647,18.757,8.3372,1.617-.0322,3.3818-.1877,5.2869-.5177,.0025-.0004,.005-.0008,.0075-.0012,.2472-.0429,.4975-.0896,.7495-.1385,5.6727-1.1003,12.5347-3.7494,20.3967-9.2195,.0943-1.2548,.1429-2.5224,.1429-3.8014,0-17.7497-9.2498-33.3378-23.1911-42.2107,.1721,1.0706,.3167,2.1069,.4394,3.112,1.1947,12.6234-1.1541,20.2183-3.9596,25.607Z" style="fill: #fe4c42;"/>
      <path d="M78.7109,63.1594c-.0025,.0004-.005,.0008-.0075,.0012,.0025-.0004,.005-.0008,.0075-.0012Z" style="fill: #fe4c42;"/>
      <path d="M54.6595,55.3412c-1.6399-1.6743-3.1555-3.4585-4.6595-5.2123,1.5039,1.7539,3.0195,3.538,4.6595,5.2123Z" style="fill: #fe4c42;"/>
      <path d="M99.8571,53.8015s0,0,0-.0001c-7.862,5.4701-14.724,8.1192-20.3967,9.2195,5.6728-1.1002,12.5347-3.7493,20.3967-9.2194Z" style="fill: #fe4c42;"/>
      <path d="M26.7115,63.7496c2.9482-5.3104,6.3487-8.4166,10.5063-10.2792,1.2888-.5954,2.6534-1.0659,4.0396-1.4575,2.9947-.8466,6.0913-1.323,8.7426-1.884-4.1717-4.9355-8.4229-10.1157-15.2994-12.4451-.0344-.0117-.0674-.0248-.102-.0363-1.9449-.6483-4.1029-1.065-6.5239-1.1886-.4575-.0234-.921-.04-1.3978-.0417-.18,.0027-.3618,.0069-.5455,.0127-6.5025,.2049-15.3084,2.3756-25.9859,9.7264-.0964,1.2686-.1456,2.5504-.1456,3.8437,0,17.7308,9.2299,33.305,23.1463,42.1827-.1523-.9692-.2828-1.9111-.3945-2.8263-1.1947-12.6233,1.1542-20.2182,3.9597-25.6069Z" style="fill: #42c01e;"/>
      <path d="M26.7243,63.7549c2.9471-5.311,6.3412-8.4199,10.4955-10.284,1.2878-.5958,2.6519-1.0664,4.0376-1.4581-1.3862,.3916-2.7508,.8621-4.0396,1.4575-4.1576,1.8627-7.558,4.9688-10.5063,10.2792-2.8055,5.3887-5.1544,12.9835-3.9597,25.6069,.1117,.9152,.2422,1.8571,.3945,2.8263,.0006,.0004,.0012,.0007,.0018,.0011-.1521-.9692-.2825-1.9112-.394-2.8264-1.1916-12.6221,1.1635-20.2143,3.9702-25.6025Z" style="fill: #42c01e;"/>
      <path d="M50.246,23.0868c.9426,1.6587,1.651,3.269,2.1675,4.8379,2.7194,8.2604,.0625,15.361-2.4135,22.2042,2.1815-.4616,4.6643-.8656,7.1442-1.4657,1.9286-.4668,3.8551-1.0524,5.6361-1.8764,4.1544-1.8641,7.5485-4.9731,10.4955-10.2842,2.8066-5.3882,5.1618-12.9804,3.9701-25.6025-.1224-1.0051-.2668-2.0413-.4388-3.1119C69.0595,2.8577,59.8638,0,50,0c-7.5697,0-14.7448,1.6854-21.1753,4.6963,11.7913,5.8571,17.8381,12.666,21.4212,18.3905Z" style="fill: #ffa105;"/>
      <path d="M73.2759,36.5026c-2.947,5.3111-6.3412,8.4201-10.4955,10.2842-1.781,.8239-3.7075,1.4095-5.6361,1.8764,1.9288-.4667,3.8559-1.0521,5.6381-1.8755,4.1574-1.8627,7.5579-4.9688,10.5063-10.2793,2.8055-5.3887,5.1543-12.9837,3.9596-25.607-.1226-1.0052-.2672-2.0414-.4394-3.112-.0006-.0004-.0011-.0007-.0017-.0011,.172,1.0706,.3164,2.1068,.4388,3.1119,1.1917,12.6221-1.1635,20.2143-3.9701,25.6025Z" style="fill: #ffa105;"/>
      <path d="M26.677,36.4171c.4769,.0017,.9404,.0183,1.3978,.0417,2.4209,.1236,4.5789,.5403,6.5239,1.1886,.0345,.0115,.0676,.0247,.102,.0363,6.8765,2.3294,11.1285,7.5097,15.2994,12.4451,2.4754-6.843,5.1327-13.944,2.4135-22.2042-.5165-1.5689-1.2249-3.1791-2.1675-4.8379-3.5835-5.7248-9.6302-12.5335-21.4213-18.3905C12.8955,12.1546,1.544,27.7631,.1456,46.1561c10.6775-7.3509,19.4833-9.5215,25.9859-9.7263,.1837-.0058,.3655-.01,.5455-.0127Z" style="fill: #ffd204;"/>
      <path d="M34.7006,37.6837c6.8765,2.3294,11.1277,7.5097,15.2994,12.4451-4.1709-4.9355-8.4228-10.1157-15.2994-12.4451Z" style="fill: #ffd204;"/>
      <path d="M34.5987,37.6474c-1.945-.6483-4.1029-1.065-6.5239-1.1886,2.421,.1236,4.5789,.5403,6.5239,1.1886Z" style="fill: #ffd204;"/>
      <path d="M.1456,46.1561v.0002c10.6775-7.3509,19.4834-9.5215,25.9859-9.7264-6.5026,.2048-15.3085,2.3754-25.9859,9.7263Z" style="fill: #ffd204;"/>
      <path d="M52.4135,27.9247c-.5165-1.5689-1.2249-3.1791-2.1675-4.8379,.9426,1.6588,1.651,3.269,2.1675,4.8379Z" style="fill: #ffd204;"/>
    </g>
  </g>
</svg>