<?xml version="1.0" encoding="utf-8"?>
<!-- Generator: Adobe Illustrator 27.4.1, SVG Export Plug-In . SVG Version: 6.00 Build 0)  -->
<svg version="1.1" id="b" xmlns="http://www.w3.org/2000/svg" xmlns:xlink="http://www.w3.org/1999/xlink" x="0px" y="0px"
	 viewBox="0 0 108.9 108.9" style="enable-background:new 0 0 108.9 108.9;" xml:space="preserve">
<style type="text/css">
	.st0{fill:none;}
	.st1{fill:#603813;}
	.st2{fill:#B0CCC2;}
	.st3{clip-path:url(#SVGID_00000183223716320438072300000004795054554069743786_);}
	.st4{fill:#EAEEB5;stroke:#231F20;stroke-miterlimit:10;}
	.st5{fill:#EF5A28;stroke:#231F20;stroke-miterlimit:10;}
	.st6{fill:#95341A;stroke:#231F20;stroke-miterlimit:10;}
	.st7{fill:url(#SVGID_00000107584133069907949910000007172417410438555799_);stroke:#231F20;stroke-miterlimit:10;}
</style>
<pattern  y="108.9" width="285" height="160" patternUnits="userSpaceOnUse" id="e" viewBox="10.7 -190 285 160" style="overflow:visible;">
	<g>
		<rect x="10.7" y="-190" class="st0" width="285" height="160"/>
		<g>
			<rect x="10.7" y="-190" class="st0" width="285" height="160"/>
			<g>
				<path class="st1" d="M188.3-219.9c14.1,0,22.4,8,22.4,19.2c0,22.6-30,14.6-30,28.6c0,4.3,3.8,7.6,8.8,7.6
					c4.9,0,7.7-2.3,11.2-8.8c1.6-2.8,2.2-3.7,4.1-3.7c2.1,0,2.3,1.8,2.3,6.8c0,6.3-5.9,10.2-16.7,10.2c-11.8,0-20.6-8.3-20.6-18.1
					c0-23.9,28.9-13.9,28.9-29.4c0-4.4-3.8-7.6-9.6-7.6c-5.7,0-11.1,3.8-15.1,12.4c-1.5,3.3-1.5,4.6-3.8,4.6c-2.6,0-3-2.9-3-9.3
					C167.2-215.2,176.9-219.9,188.3-219.9L188.3-219.9z"/>
				<path class="st1" d="M228.5-219.9c10.8,0,14.3,10.7,11.4,11.8c-1.8,0.7-3.1-2.6-6.5-2.6c-3.5,0-4.4,2.6-4.4,5.3v19.9h5.4
					c1.3,0,2.4,1.1,2.4,2.4c0,1.3-1.1,2.3-2.4,2.3h-5.4v6.6c0,2.7-2.9,3.2-4.1,0.9c-2.8-5.4-4.5-7.5-8.9-7.5h-1.1
					c-1.3,0-2.3-1.1-2.3-2.3c0-1.3,1.1-2.4,2.3-2.4h1.4v-21.1C216.3-214.2,220.8-219.9,228.5-219.9L228.5-219.9z"/>
				<path class="st1" d="M256.9-219.9c5.5,0,9.3,3.3,10.7,6.1c1-4,3.6-6,7.7-6c6.3,0,8.4,6,7.2,7.9c-0.9,1.5-2.8-0.4-2.8,4.8v9.8
					c0,4.1,0,17.1-17.9,17.1c-9.6,0-14.9-4.4-14.9-9.7c0-3.1,2.3-4.8,5.4-4.8c7,0,4.9,10.3,9.8,10.3c3.9,0,4.9-5.4,4.9-9.3v-2.9
					c-13.4,0-22.8-1.6-22.8-12.2C244.2-215.5,249.3-219.9,256.9-219.9L256.9-219.9z M255.9-207.8c0,4.2,3.6,6.9,11.1,6.9v-4.5
					c0-3.5-2.1-7.2-6-7.2C257.9-212.6,255.9-211.2,255.9-207.8z"/>
				<path class="st1" d="M288.8-219.9c2.6,0,3.4,4.3,7.4,4.3c4.2,0,6.9-4.3,15.3-4.3c9.9,0,17.4,8,17.4,19.9
					c0,11.7-7.4,19.8-17.4,19.8c-5.7,0-9.5-2.6-12-6.3v24.4c0,1.4-0.8,2.3-2.9,1.9l-10.5-1.9c-0.7-0.1-1.1-0.7-1.1-1.3
					c0-1.5,1.8-1.2,1.8-5.5v-46.3C286.8-218.5,287.2-219.9,288.8-219.9L288.8-219.9z M299.6-200.2c0,7.8,3.1,13.1,7.9,13.1
					c5,0,8.5-5.3,8.5-13.2c0-8-3.8-13.2-8.4-13.2S299.6-208.4,299.6-200.2L299.6-200.2z"/>
			</g>
			<g>
				<path class="st1" d="M3.8-219.9c2.6,0,3.4,4.3,7.4,4.3c4.2,0,6.9-4.3,15.3-4.3c9.9,0,17.4,8,17.4,19.9
					c0,11.7-7.4,19.8-17.4,19.8c-5.7,0-9.5-2.6-12-6.3v24.4c0,1.4-0.8,2.3-2.9,1.9L1.1-162c-0.7-0.1-1.1-0.7-1.1-1.3
					c0-1.5,1.8-1.2,1.8-5.5v-46.3C1.8-218.5,2.2-219.9,3.8-219.9L3.8-219.9z M14.6-200.2c0,7.8,3.1,13.1,7.9,13.1
					c5,0,8.5-5.3,8.5-13.2c0-8-3.8-13.2-8.4-13.2S14.6-208.4,14.6-200.2L14.6-200.2z"/>
				<path class="st1" d="M48.5-219.2h14.2c0.7,0,1.1,0.3,1.1,0.8c0,1.8-1.8,1.6-1.8,5.9v50.4c0,1.4-0.8,2.3-2.9,1.9
					c-2.3-0.4-9.5-1.8-10.5-1.9c-0.7-0.2-1.1-0.7-1.1-1.3c0-1.5,1.8-1.2,1.8-5.5v-43.7c0-4.3-1.8-4.2-1.8-5.9
					C47.4-219,47.9-219.2,48.5-219.2L48.5-219.2z"/>
				<path class="st1" d="M86.7-219.9c12.7,0,18.2,10.8,15.1,12.5c-1.9,1.2-3.3-2.9-9.8-2.9c-7.4,0-12.3,4.4-13.8,11h19.4
					c3.4,0,4.7,1.2,4.7,3.8c0,7.5-4.8,15.3-16.1,15.3c-11.4,0-19.7-8.6-19.7-20.2C66.5-212,74.9-219.9,86.7-219.9L86.7-219.9z
					 M77.7-194.6c0.1,6.2,3.8,10.3,7.4,10.3c3.3,0,5.6-3.2,5.4-9L77.7-194.6L77.7-194.6z"/>
				<path class="st1" d="M122.8-219.9c9.9,0,16.5,6.4,16.5,14.2c0,11.6-20.5,10.3-20.5,17.3c0,2.3,1.8,3.8,4.2,3.8
					c3.8,0,6.2-2,8.1-5.1c1.3-2.3,1.9-3.7,4-3.7c1.3,0,2.2,1.3,2.2,5.8c0,4.1-6.9,7.4-13.9,7.4c-10,0-15.6-5.6-15.6-13
					c0-14.3,19.6-11.1,19.6-18.6c0-2.3-1.9-3.7-4.9-3.7c-4.9,0-8.7,3.2-10.4,7.2c-1.3,3.3-1.9,3.4-3.4,3.4c-1.7,0-2.4-1.7-2.4-6.5
					C106.2-216.8,114.3-219.9,122.8-219.9L122.8-219.9z"/>
			</g>
			<g>
				<path class="st1" d="M188.3-59.9c14.1,0,22.4,8,22.4,19.2c0,22.6-30,14.6-30,28.6c0,4.3,3.8,7.6,8.8,7.6c4.9,0,7.7-2.3,11.2-8.8
					c1.6-2.8,2.2-3.7,4.1-3.7c2.1,0,2.3,1.8,2.3,6.8C207-3.9,201.2,0,190.3,0c-11.8,0-20.6-8.3-20.6-18.1
					c0-23.9,28.9-13.9,28.9-29.4c0-4.4-3.8-7.6-9.6-7.6c-5.7,0-11.1,3.8-15.1,12.4c-1.5,3.3-1.5,4.6-3.8,4.6c-2.6,0-3-2.9-3-9.3
					C167.2-55.2,176.9-59.9,188.3-59.9L188.3-59.9z"/>
				<path class="st1" d="M228.5-59.9c10.8,0,14.3,10.7,11.4,11.8c-1.8,0.7-3.1-2.6-6.5-2.6c-3.5,0-4.4,2.6-4.4,5.3v19.9h5.4
					c1.3,0,2.4,1.1,2.4,2.4c0,1.3-1.1,2.3-2.4,2.3h-5.4v6.6c0,2.7-2.9,3.2-4.1,0.9c-2.8-5.4-4.5-7.5-8.9-7.5h-1.1
					c-1.3,0-2.3-1.1-2.3-2.3c0-1.3,1.1-2.4,2.3-2.4h1.4v-21.1C216.3-54.2,220.8-59.9,228.5-59.9L228.5-59.9z"/>
				<path class="st1" d="M256.9-59.9c5.5,0,9.3,3.3,10.7,6.1c1-4,3.6-6,7.7-6c6.3,0,8.4,6,7.2,7.9c-0.9,1.5-2.8-0.4-2.8,4.8v9.8
					c0,4.1,0,17.1-17.9,17.1c-9.6,0-14.9-4.4-14.9-9.7c0-3.1,2.3-4.8,5.4-4.8c7,0,4.9,10.3,9.8,10.3c3.9,0,4.9-5.4,4.9-9.3v-2.9
					c-13.4,0-22.8-1.6-22.8-12.2C244.2-55.5,249.3-59.9,256.9-59.9L256.9-59.9z M255.9-47.8c0,4.2,3.6,6.9,11.1,6.9v-4.5
					c0-3.5-2.1-7.2-6-7.2C257.9-52.6,255.9-51.2,255.9-47.8z"/>
				<path class="st1" d="M288.8-59.9c2.6,0,3.4,4.3,7.4,4.3c4.2,0,6.9-4.3,15.3-4.3c9.9,0,17.4,8,17.4,19.9
					c0,11.7-7.4,19.8-17.4,19.8c-5.7,0-9.5-2.6-12-6.3V-2c0,1.4-0.8,2.3-2.9,1.9L286.1-2c-0.7-0.1-1.1-0.7-1.1-1.3
					c0-1.5,1.8-1.2,1.8-5.5v-46.3C286.8-58.5,287.2-59.9,288.8-59.9L288.8-59.9z M299.6-40.2c0,7.8,3.1,13.1,7.9,13.1
					c5,0,8.5-5.3,8.5-13.2c0-8-3.8-13.2-8.4-13.2S299.6-48.4,299.6-40.2L299.6-40.2z"/>
			</g>
			<g>
				<path class="st1" d="M45.8-139.9c14.1,0,22.4,8,22.4,19.2c0,22.6-30,14.6-30,28.6c0,4.3,3.8,7.6,8.8,7.6c4.9,0,7.7-2.3,11.2-8.8
					c1.6-2.8,2.2-3.7,4.1-3.7c2.1,0,2.3,1.8,2.3,6.8c0,6.3-5.9,10.2-16.7,10.2C36-80,27.2-88.3,27.2-98.1
					c0-23.9,28.9-13.9,28.9-29.4c0-4.4-3.8-7.6-9.6-7.6c-5.7,0-11.1,3.8-15.1,12.4c-1.5,3.3-1.5,4.6-3.8,4.6c-2.6,0-3-2.9-3-9.3
					C24.7-135.2,34.4-139.9,45.8-139.9L45.8-139.9z"/>
				<path class="st1" d="M86-139.9c10.8,0,14.3,10.7,11.4,11.8c-1.8,0.7-3.1-2.6-6.5-2.6c-3.5,0-4.4,2.6-4.4,5.3v19.9h5.4
					c1.3,0,2.4,1.1,2.4,2.4c0,1.3-1.1,2.3-2.4,2.3h-5.4v6.6c0,2.7-2.9,3.2-4.1,0.9c-2.8-5.4-4.5-7.5-8.9-7.5h-1.1
					c-1.3,0-2.3-1.1-2.3-2.3c0-1.3,1.1-2.4,2.3-2.4h1.4v-21.1C73.8-134.2,78.3-139.9,86-139.9L86-139.9z"/>
				<path class="st1" d="M114.4-139.9c5.5,0,9.3,3.3,10.7,6.1c1-4,3.6-6,7.7-6c6.3,0,8.4,6,7.2,7.9c-0.9,1.5-2.8-0.4-2.8,4.8v9.8
					c0,4.1,0,17.1-17.9,17.1c-9.6,0-14.9-4.4-14.9-9.7c0-3.1,2.3-4.8,5.4-4.8c7,0,4.9,10.3,9.8,10.3c3.9,0,4.9-5.4,4.9-9.3v-2.9
					c-13.4,0-22.8-1.6-22.8-12.2C101.7-135.5,106.8-139.9,114.4-139.9L114.4-139.9z M113.4-127.8c0,4.2,3.6,6.9,11.1,6.9v-4.5
					c0-3.5-2.1-7.2-6-7.2C115.4-132.6,113.4-131.2,113.4-127.8z"/>
				<path class="st1" d="M146.3-139.9c2.6,0,3.4,4.3,7.4,4.3c4.2,0,6.9-4.3,15.3-4.3c9.9,0,17.4,8,17.4,19.9
					c0,11.7-7.4,19.8-17.4,19.8c-5.7,0-9.5-2.6-12-6.3V-82c0,1.4-0.8,2.3-2.9,1.9L143.6-82c-0.7-0.1-1.1-0.7-1.1-1.3
					c0-1.5,1.8-1.2,1.8-5.5v-46.3C144.3-138.5,144.7-139.9,146.3-139.9L146.3-139.9z M157.1-120.2c0,7.8,3.1,13.1,7.9,13.1
					c5,0,8.5-5.3,8.5-13.2c0-8-3.8-13.2-8.4-13.2S157.1-128.4,157.1-120.2L157.1-120.2z"/>
				<path class="st1" d="M191-139.2h14.2c0.7,0,1.1,0.3,1.1,0.8c0,1.8-1.8,1.6-1.8,5.9V-82c0,1.4-0.8,2.3-2.9,1.9
					c-2.3-0.4-9.5-1.8-10.5-1.9c-0.7-0.2-1.1-0.7-1.1-1.3c0-1.5,1.8-1.2,1.8-5.5v-43.7c0-4.3-1.8-4.2-1.8-5.9
					C189.9-139,190.4-139.2,191-139.2L191-139.2z"/>
				<path class="st1" d="M229.2-139.9c12.7,0,18.2,10.8,15.1,12.5c-1.9,1.2-3.3-2.9-9.8-2.9c-7.4,0-12.3,4.4-13.8,11h19.4
					c3.4,0,4.7,1.2,4.7,3.8c0,7.5-4.8,15.3-16.1,15.3c-11.4,0-19.7-8.6-19.7-20.2C209-132,217.4-139.9,229.2-139.9L229.2-139.9z
					 M220.2-114.6c0.1,6.2,3.8,10.3,7.4,10.3c3.3,0,5.6-3.2,5.4-9L220.2-114.6L220.2-114.6z"/>
				<path class="st1" d="M265.3-139.9c9.9,0,16.5,6.4,16.5,14.2c0,11.6-20.5,10.3-20.5,17.3c0,2.3,1.8,3.8,4.2,3.8
					c3.8,0,6.2-2,8.1-5.1c1.3-2.3,1.9-3.7,4-3.7c1.3,0,2.2,1.3,2.2,5.8c0,4.1-6.9,7.4-13.9,7.4c-10,0-15.6-5.6-15.6-13
					c0-14.3,19.6-11.1,19.6-18.6c0-2.3-1.9-3.7-4.9-3.7c-4.9,0-8.7,3.2-10.4,7.2c-1.3,3.3-1.9,3.4-3.4,3.4c-1.7,0-2.4-1.7-2.4-6.5
					C248.7-136.8,256.8-139.9,265.3-139.9L265.3-139.9z"/>
			</g>
			<g>
				<path class="st1" d="M3.8-59.9c2.6,0,3.4,4.3,7.4,4.3c4.2,0,6.9-4.3,15.3-4.3c9.9,0,17.4,8,17.4,19.9c0,11.7-7.4,19.8-17.4,19.8
					c-5.7,0-9.5-2.6-12-6.3V-2c0,1.4-0.8,2.3-2.9,1.9L1.1-2C0.4-2.1,0-2.7,0-3.3c0-1.5,1.8-1.2,1.8-5.5v-46.3
					C1.8-58.5,2.2-59.9,3.8-59.9L3.8-59.9z M14.6-40.2c0,7.8,3.1,13.1,7.9,13.1c5,0,8.5-5.3,8.5-13.2c0-8-3.8-13.2-8.4-13.2
					S14.6-48.4,14.6-40.2z"/>
				<path class="st1" d="M48.5-59.2h14.2c0.7,0,1.1,0.3,1.1,0.8c0,1.8-1.8,1.6-1.8,5.9V-2c0,1.4-0.8,2.3-2.9,1.9
					C56.7-0.5,49.6-1.9,48.5-2c-0.7-0.2-1.1-0.7-1.1-1.3c0-1.5,1.8-1.2,1.8-5.5v-43.7c0-4.3-1.8-4.2-1.8-5.9
					C47.4-59,47.9-59.2,48.5-59.2L48.5-59.2z"/>
				<path class="st1" d="M86.7-59.9c12.7,0,18.2,10.8,15.1,12.5c-1.9,1.2-3.3-2.9-9.8-2.9c-7.4,0-12.3,4.4-13.8,11h19.4
					c3.4,0,4.7,1.2,4.7,3.8c0,7.5-4.8,15.3-16.1,15.3c-11.4,0-19.7-8.6-19.7-20.2C66.5-52,74.9-59.9,86.7-59.9L86.7-59.9z
					 M77.7-34.6c0.1,6.2,3.8,10.3,7.4,10.3c3.3,0,5.6-3.2,5.4-9L77.7-34.6L77.7-34.6z"/>
				<path class="st1" d="M122.8-59.9c9.9,0,16.5,6.4,16.5,14.2c0,11.6-20.5,10.3-20.5,17.3c0,2.3,1.8,3.8,4.2,3.8
					c3.8,0,6.2-2,8.1-5.1c1.3-2.3,1.9-3.7,4-3.7c1.3,0,2.2,1.3,2.2,5.8c0,4.1-6.9,7.4-13.9,7.4c-10,0-15.6-5.6-15.6-13
					c0-14.3,19.6-11.1,19.6-18.6c0-2.3-1.9-3.7-4.9-3.7c-4.9,0-8.7,3.2-10.4,7.2c-1.3,3.3-1.9,3.4-3.4,3.4c-1.7,0-2.4-1.7-2.4-6.5
					C106.2-56.8,114.3-59.9,122.8-59.9L122.8-59.9z"/>
			</g>
		</g>
	</g>
</pattern>
<g id="c">
	<g>
		<circle class="st2" cx="54.4" cy="54.4" r="54.4"/>
		<g>
			<defs>
				<circle id="SVGID_1_" cx="54.4" cy="54.4" r="54.4"/>
			</defs>
			<clipPath id="SVGID_00000051362417923473990050000016576019863489612416_">
				<use xlink:href="#SVGID_1_"  style="overflow:visible;"/>
			</clipPath>
			<g style="clip-path:url(#SVGID_00000051362417923473990050000016576019863489612416_);">
				<g>
					<path class="st4" d="M43.2-7.5L45,39.3c1.2-1.7,5-2.9,9.4-2.9s8.2,1.2,9.4,2.9l1.9-46.7C65.7-7.5,43.2-7.5,43.2-7.5z"/>
					<path class="st5" d="M54.4,36.4c-4.4,0-8.2,1.2-9.4,2.9l2.1,52.4c0-1.3,3.3-2.4,7.3-2.4s7.3,1.1,7.3,2.4l2.1-52.4
						C62.6,37.6,58.9,36.4,54.4,36.4z"/>
					<ellipse class="st6" cx="54.4" cy="91.7" rx="7.3" ry="2.4"/>
					
						<pattern  id="SVGID_00000163774773086147418440000010011780734117760187_" xlink:href="#e" patternTransform="matrix(7.880108e-02 -6.156615e-02 -6.156615e-02 -7.880108e-02 -15755.666 -228.4368)">
					</pattern>
					<path style="fill:url(#SVGID_00000163774773086147418440000010011780734117760187_);stroke:#231F20;stroke-miterlimit:10;" d="
						M54.4,36.4c-4.4,0-8.2,1.2-9.4,2.9l2.1,52.4c0-1.3,3.3-2.4,7.3-2.4s7.3,1.1,7.3,2.4l2.1-52.4C62.6,37.6,58.9,36.4,54.4,36.4z"
						/>
				</g>
			</g>
		</g>
	</g>
</g>
</svg>
