<?xml version="1.0" encoding="utf-8"?>
<!-- Generator: Adobe Illustrator 27.4.1, SVG Export Plug-In . SVG Version: 6.00 Build 0)  -->
<svg version="1.1" id="b" xmlns="http://www.w3.org/2000/svg" xmlns:xlink="http://www.w3.org/1999/xlink" x="0px" y="0px"
	 viewBox="0 0 108.9 108.9" style="enable-background:new 0 0 108.9 108.9;" xml:space="preserve">
<style type="text/css">
	.st0{fill:#B0CCC2;}
	.st1{fill:none;}
	.st2{fill:#060606;}
	.st3{fill:#EE9CC3;}
	.st4{fill:#E44025;}
	.st5{fill:#FFFFFF;}
</style>
<circle class="st0" cx="54.4" cy="54.4" r="54.4"/>
<circle class="st1" cx="54.4" cy="54.4" r="54.4"/>
<circle class="st1" cx="-138.5" cy="11" r="50.7"/>
<g id="JBKxRW.tif">
	<g>
		<path class="st2" d="M43.3,33.3c2.8-0.1,5.4,0.5,7.8,1.8c0.6,0.3,1.1,0.6,1.6,0.9c1.2,0.8,2.3,0.6,3.5-0.1
			c3.3-2.1,6.9-2.9,10.8-2.5c1.9,0.2,3.7,0.7,5.5,1.5c2,0.9,3.7,2.2,5.3,3.7c1.2,1.2,2.4,2.5,3.6,3.7c2.5,2.4,4.9,4.9,7.4,7.3
			c0.7,0.7,1.4,1.4,2.1,2.2c0.1,0.1,0.1,0.5,0,0.6c-0.9,1.3-1.8,2.6-2.8,3.8c-1.6,1.9-3.2,3.8-4.9,5.6c-3,3-6.3,5.7-10,7.8
			c-1.7,1-3.5,1.8-5.2,2.7c-0.2,0.1-0.3,0.3-0.3,0.5c0,3-1.2,5.6-3,7.9c-1.3,1.7-3,2.9-5,3.7c-1.8,0.7-3.7,1.3-5.6,1.2
			c-1.4-0.1-2.8-0.5-4.1-0.8c-1.9-0.5-3.5-1.7-4.8-3c-1.4-1.4-2.5-3.1-3.2-5.1c-0.4-1.3-0.7-2.5-0.7-3.9c0-0.2-0.3-0.6-0.6-0.7
			c-1.1-0.6-2.2-1-3.3-1.6c-2-1-4-2.3-5.8-3.7c-2.3-1.7-4.4-3.6-6.4-5.6c-2.4-2.5-4.7-5.1-6.6-8c-0.9-1.3-0.9-1.3,0.2-2.4
			c2.3-2.3,4.6-4.6,7-7c2-2,4-4.1,6.1-6.1c1.3-1.1,2.7-2.1,4.2-2.9c1.1-0.6,2.4-1.1,3.6-1.4C40.8,33.3,42.1,33.4,43.3,33.3z
			 M77.7,50.9c0.2,0.1,0.4,0.2,0.6,0.2c2,0,4,0,5.9,0c0.1,0,0.3-0.1,0.4-0.1c0-0.1,0-0.1,0-0.2c-2.2-0.8-4.4-1.7-6.6-2.5
			c-0.1-0.1-0.2-0.1-0.3-0.2c-0.1,0.2-0.3,0.3-0.3,0.5c0,0.7,0,1.3,0,2C77.5,50.8,77.6,50.8,77.7,50.9z M24.5,51.1
			c2.2,0,4.4,0,6.7,0c0-0.8,0-1.6,0-2.3c0-0.4-0.3-0.4-0.6-0.4c-0.3,0.1-0.6,0.2-0.9,0.3c-1.7,0.7-3.5,1.4-5.2,2
			c-0.1,0.1-0.2,0.2-0.3,0.2C24.3,51.1,24.4,51.1,24.5,51.1z M53.4,44.9c-1,0-1.9-0.1-2.9-0.1c-1.9,0.1-3.8,0.3-5.6,0.5
			c-0.4,0-0.6,0.1-0.5,0.5c0,0.6,0,1.2,0,1.9c0,1.1,0,2.3,0,3.4c0.1,0.1,0.1,0.1,0.2,0.1c2.8,0,5.7,0,8.5,0c0.4,0,0.5-0.3,0.5-0.6
			c0-0.9,0-1.9,0-2.8C53.4,46.8,53.4,45.8,53.4,44.9L53.4,44.9L53.4,44.9z M70,58.1c0-0.1,0-0.1,0-0.2c-0.6-0.4-1.2-1-2-1.3
			c-1.3-0.6-2.6-1.3-4.1-1.3c-1.2,0-2.4-0.3-3.5-0.1c-1.3,0.2-2.5,0.8-3.7,1.2c-1,0.3-1.2,1-1.2,2c0,6.6-0.1,13.2-0.1,19.8
			c0,0.4-0.1,0.7-0.5,0.9c-0.5,0.2-0.9,0.2-1.1-0.2c-0.2-0.3-0.3-0.7-0.3-1c0-5.3,0-10.6,0-15.9c0-1.5-0.1-3-0.1-4.6
			c0-0.2-0.1-0.4-0.3-0.5c-0.5-0.3-1-0.6-1.5-0.8c-1.8-0.7-3.7-0.9-5.7-0.9c-2,0-3.7,0.7-5.4,1.6c-0.6,0.3-1.1,0.8-1.7,1.2
			c0,0.1,0.1,0.1,0.1,0.2c1.1,0.2,2.3,0.4,3.4,0.6c0.9,0.1,0.9,0.1,0.9,1c0,3.8,0,7.7,0,11.5c0,1.6,0,3.1,0.6,4.6
			c0.6,1.6,1.4,3,2.6,4.2c1.2,1.1,2.5,2.1,4.1,2.6c0.8,0.3,1.6,0.6,2.5,0.7c0.9,0.1,1.9,0,2.9-0.1c2.2-0.2,4.1-1.1,5.8-2.5
			c2.7-2.2,4-5.1,4.1-8.6c0-4.2,0-8.4,0-12.6c0-0.8,0.1-0.8,0.9-0.9c0.9-0.1,1.8-0.3,2.8-0.4C69.5,58.3,69.7,58.2,70,58.1z
			 M83.1,47.4c-0.1-0.1-0.1-0.2-0.2-0.3c-2.4-2.4-4.7-4.9-7.2-7.2c-1.8-1.7-3.9-3-6.4-3.6c-1.7-0.4-3.5-0.6-5.2-0.5
			c-0.4,0-0.8-0.1-1.2,0.1c-1,0.3-2,0.7-3,1.1c-0.7,0.3-1.5,0.7-2.2,1.1c-1.5,0.9-3.1,1.4-4.8,0.7c-0.7-0.3-1.5-0.7-2.2-1.1
			c-1.9-1.2-4.1-1.7-6.3-1.8c-1.8-0.1-3.5,0.1-5.3,0.7c-1.9,0.6-3.7,1.5-5.2,2.9c-2.6,2.4-5.1,5-7.6,7.5c-0.1,0.1-0.1,0.2-0.2,0.4
			c0,0.1,0,0.1,0.1,0.2C45.1,40.5,64.1,40.4,83.1,47.4z M24.2,56.1c0,0.1-0.1,0.2-0.1,0.2c1.3,1.9,3,3.4,4.6,4.9
			c1.4,1.3,2.9,2.5,4.4,3.7c2.3,1.8,4.7,3.3,7.4,4.4c0.4,0.2,0.5,0.1,0.5-0.3c0-2.5,0-5.1,0-7.6c0-0.2-0.3-0.5-0.5-0.6
			c-1.1-0.3-2.3-0.4-3.4-0.7c-1-0.2-2-0.4-3-0.7c-1.5-0.4-3.1-0.9-4.6-1.4c-1.2-0.4-2.4-0.9-3.6-1.3C25.4,56.5,24.8,56.3,24.2,56.1z
			 M67.8,69.3c2.8,0.2,15.4-9.6,17-13.1c-0.1,0-0.1,0-0.2,0c-1.3,0.5-2.5,0.9-3.8,1.4c-1.1,0.4-2.2,0.9-3.4,1.3
			c-0.7,0.2-1.4,0.3-2.1,0.5c-1.7,0.4-3.3,0.9-5,1.3c-0.6,0.2-1.3,0.2-2,0.3c-0.5,0.1-0.7,0.3-0.7,0.8c0,2.4,0,4.7,0,7.1
			C67.7,69,67.8,69.1,67.8,69.3z M64.5,45.4c-0.8-0.1-1.6-0.2-2.3-0.2c-0.7-0.1-1.3-0.1-2-0.1c-1.4-0.1-2.8-0.2-4.2-0.4
			c-0.4,0-0.6,0.1-0.6,0.5c0,1.8,0,3.6,0,5.5c0,0.3,0.1,0.5,0.5,0.5c2.7,0,5.4,0,8.1,0c0.3,0,0.5-0.1,0.5-0.5
			C64.5,48.9,64.5,47.2,64.5,45.4z M42.3,45.7c-0.9,0.1-1.8,0.2-2.6,0.4c-2,0.4-3.9,0.9-5.9,1.4c-0.4,0.1-0.7,0.3-0.6,0.8
			c0.1,0.8,0,1.5,0,2.3c0,0.4,0.1,0.6,0.6,0.6c2.7,0,5.3,0,8,0c0.4,0,0.5-0.2,0.5-0.6c0-1.1,0-2.2,0-3.3
			C42.3,46.8,42.3,46.3,42.3,45.7z M66.6,45.7c0,1.8,0,3.4,0,5.1c0,0.1,0.3,0.3,0.5,0.3c2.7,0,5.3,0,8,0c0.4,0,0.5-0.1,0.5-0.5
			c0-0.9,0-1.7,0-2.6c0-0.4-0.1-0.5-0.5-0.6c-2.7-0.6-5.3-1.2-8-1.8C67,45.7,66.8,45.7,66.6,45.7z"/>
		<path class="st3" d="M70,58.1c-0.2,0.1-0.5,0.2-0.7,0.2c-0.9,0.2-1.8,0.4-2.8,0.4c-0.8,0.1-0.9,0.1-0.9,0.9c0,4.2,0,8.4,0,12.6
			c0,3.5-1.4,6.4-4.1,8.6c-1.7,1.4-3.6,2.3-5.8,2.5c-1,0.1-1.9,0.2-2.9,0.1c-0.8-0.1-1.6-0.4-2.5-0.7c-1.6-0.5-2.9-1.5-4.1-2.6
			c-1.2-1.2-2-2.6-2.6-4.2c-0.6-1.5-0.6-3.1-0.6-4.6c0-3.8,0-7.7,0-11.5c0-0.9,0-0.9-0.9-1c-1.1-0.2-2.3-0.4-3.4-0.6
			c0-0.1-0.1-0.1-0.1-0.2c0.6-0.4,1.1-0.9,1.7-1.2c1.7-0.9,3.4-1.6,5.4-1.6c2,0,3.9,0.1,5.7,0.9c0.5,0.2,1,0.5,1.5,0.8
			c0.1,0.1,0.3,0.3,0.3,0.5c0.1,1.5,0.1,3,0.1,4.6c0,5.3,0,10.6,0,15.9c0,0.3,0.1,0.7,0.3,1c0.3,0.4,0.7,0.4,1.1,0.2
			c0.4-0.2,0.5-0.5,0.5-0.9c0-6.6,0.1-13.2,0.1-19.8c0-1,0.2-1.7,1.2-2c1.2-0.4,2.4-1,3.7-1.2c1.1-0.2,2.4,0.1,3.5,0.1
			c1.5,0,2.8,0.7,4.1,1.3c0.7,0.3,1.3,0.9,2,1.3C70,58,70,58.1,70,58.1z"/>
		<path class="st4" d="M83.1,47.4c-19-7-38-6.9-57-0.1c0-0.1,0-0.1-0.1-0.2c0.1-0.1,0.1-0.3,0.2-0.4c2.5-2.5,5-5.1,7.6-7.5
			c1.5-1.4,3.3-2.3,5.2-2.9c1.7-0.5,3.5-0.8,5.3-0.7c2.2,0.2,4.4,0.6,6.3,1.8c0.7,0.4,1.4,0.8,2.2,1.1c1.7,0.7,3.3,0.2,4.8-0.7
			c0.7-0.4,1.4-0.8,2.2-1.1c1-0.4,2-0.8,3-1.1c0.4-0.1,0.8,0,1.2-0.1c1.8-0.1,3.5,0.1,5.2,0.5c2.5,0.6,4.6,1.9,6.4,3.6
			c2.5,2.3,4.8,4.8,7.2,7.2C83,47.2,83,47.3,83.1,47.4z"/>
		<path class="st4" d="M24.2,56.1c0.6,0.2,1.2,0.4,1.8,0.6c1.2,0.4,2.4,0.9,3.6,1.3c1.5,0.5,3,1,4.6,1.4c1,0.3,2,0.5,3,0.7
			c1.1,0.2,2.3,0.4,3.4,0.7c0.2,0,0.5,0.4,0.5,0.6c0,2.5,0,5.1,0,7.6c0,0.4-0.1,0.5-0.5,0.3c-2.7-1.1-5.1-2.6-7.4-4.4
			c-1.5-1.2-3-2.4-4.4-3.7c-1.7-1.5-3.4-3.1-4.6-4.9C24.1,56.3,24.2,56.2,24.2,56.1z"/>
		<path class="st4" d="M67.8,69.3c0-0.2,0-0.4,0-0.5c0-2.4,0-4.7,0-7.1c0-0.5,0.2-0.8,0.7-0.8c0.7-0.1,1.3-0.2,2-0.3
			c1.7-0.4,3.3-0.9,5-1.3c0.7-0.2,1.4-0.3,2.1-0.5c1.1-0.4,2.2-0.8,3.4-1.3c1.3-0.5,2.5-0.9,3.8-1.4c0,0,0.1,0,0.2,0
			C83.2,59.7,70.6,69.5,67.8,69.3z"/>
		<path class="st5" d="M53.4,44.9c0,1,0,1.9,0.1,2.9c0,0.9,0,1.9,0,2.8c0,0.3-0.1,0.6-0.5,0.6c-2.8,0-5.7,0-8.5,0c0,0-0.1,0-0.2-0.1
			c0-1.1,0-2.2,0-3.4c0-0.6,0-1.2,0-1.9c0-0.4,0.1-0.5,0.5-0.5c1.9-0.1,3.8-0.3,5.6-0.5C51.4,44.8,52.4,44.8,53.4,44.9
			C53.4,44.9,53.4,44.9,53.4,44.9z"/>
		<path class="st5" d="M64.5,45.4c0,1.8,0,3.5,0,5.3c0,0.3-0.2,0.5-0.5,0.5c-2.7,0-5.4,0-8.1,0c-0.3,0-0.5-0.1-0.5-0.5
			c0-1.8,0-3.6,0-5.5c0-0.4,0.2-0.6,0.6-0.5c1.4,0.1,2.8,0.2,4.2,0.4c0.7,0.1,1.3,0.1,2,0.1C63,45.2,63.7,45.3,64.5,45.4z"/>
		<path class="st5" d="M42.3,45.7c0,0.6,0,1.1,0,1.6c0,1.1,0,2.2,0,3.3c0,0.4-0.1,0.6-0.5,0.6c-2.7,0-5.3,0-8,0
			c-0.4,0-0.6-0.2-0.6-0.6c0-0.8,0.1-1.5,0-2.3c0-0.5,0.2-0.7,0.6-0.8c2-0.5,3.9-0.9,5.9-1.4C40.6,45.9,41.4,45.8,42.3,45.7z"/>
		<path class="st5" d="M66.6,45.7c0.3,0,0.4,0,0.6,0c2.7,0.6,5.3,1.2,8,1.8c0.4,0.1,0.5,0.2,0.5,0.6c0,0.9,0,1.7,0,2.6
			c0,0.4-0.1,0.5-0.5,0.5c-2.7,0-5.3,0-8,0c-0.2,0-0.5-0.2-0.5-0.3C66.5,49.1,66.6,47.4,66.6,45.7z"/>
		<path class="st5" d="M24.5,50.8c1.7-0.7,3.5-1.4,5.2-2c0.3-0.1,0.6-0.3,0.9-0.3c0.3-0.1,0.6-0.1,0.6,0.4c0,0.8,0,1.5,0,2.3
			c-2.3,0-4.5,0-6.7,0C24.5,51,24.5,50.9,24.5,50.8z"/>
		<path class="st5" d="M78.1,48.4c2.2,0.8,4.4,1.7,6.6,2.5c0,0.1,0,0.1,0,0.2c-0.1,0-0.3,0.1-0.4,0.1c-2,0-4,0-5.9,0
			c-0.2,0-0.4-0.1-0.6-0.2c0-0.7,0-1.4,0-2.1C77.7,48.6,77.8,48.4,78.1,48.4z"/>
		<path class="st3" d="M78.1,48.4c-0.3,0-0.4,0.2-0.4,0.5c0,0.7,0,1.4,0,2.1c-0.1-0.1-0.2-0.2-0.2-0.3c0-0.7,0-1.3,0-2
			c0-0.2,0.2-0.3,0.3-0.5C77.9,48.2,78,48.3,78.1,48.4z"/>
		<path class="st3" d="M24.5,50.8c0,0.1,0,0.2,0,0.3c-0.1,0-0.2-0.1-0.3-0.1C24.3,51,24.4,50.9,24.5,50.8z"/>
		<polygon class="st3" points="53.4,44.9 53.4,44.9 53.4,44.9 		"/>
	</g>
</g>
</svg>
