<?xml version="1.0" encoding="UTF-8"?>
<svg id="b" data-name="Layer 2" xmlns="http://www.w3.org/2000/svg" xmlns:xlink="http://www.w3.org/1999/xlink" viewBox="0 0 108.8814 108.8814">
  <defs>
    <clipPath id="d">
      <circle cx="54.4407" cy="54.4407" r="54.4407" fill="none"/>
    </clipPath>
  </defs>
  <g id="c" data-name="Layer 1">
    <g>
      <g>
        <circle cx="54.4407" cy="54.4407" r="54.4407" fill="#b0ccc2"/>
        <g clip-path="url(#d)">
          <g>
            <path d="M43.1529-7.4828l1.885,46.7371c1.2319-1.6741,4.9741-2.8918,9.4021-2.8918s8.1702,1.2178,9.4021,2.8918l1.885-46.7371h-22.5742Z" fill="#eaeeb5" stroke="#231f20" stroke-miterlimit="10"/>
            <path d="M54.44,36.3624c-4.428,0-8.1702,1.2178-9.4021,2.8918l2.115,52.4365c0-1.3123,3.2625-2.3762,7.2871-2.3762s7.2871,1.064,7.2871,2.3762l2.115-52.4365c-1.2319-1.6741-4.9741-2.8918-9.4021-2.8918Z" fill="#ef5a28" stroke="#231f20" stroke-miterlimit="10"/>
            <ellipse cx="54.44" cy="91.6908" rx="7.2871" ry="2.3762" fill="#c0c096" stroke="#231f20" stroke-miterlimit="10"/>
          </g>
        </g>
      </g>
      <g>
        <path d="M52.5605,45.7484c.8203,0,1.1979,.0539,1.1979,.3885,0,.3022-.1727,.3022-.5936,.4964-1.1116,.5072-1.5972,1.2087-1.5972,1.9426,0,.7446,.4101,1.241,.982,1.241,1.9966,0,.7015-3.734,3.788-3.734,1.2627,0,2.3312,1.1331,2.3312,2.6549,0,1.403-.5073,2.1584-1.3167,2.1584-.6476,0-.8742-.0216-.8742-.2914,0-.2482,.1079-.3237,.4748-.5288,.8419-.4532,1.1332-.8202,1.1332-1.4461,0-.6475-.4209-1.1332-.982-1.1332-1.8024,0-.777,3.8744-3.691,3.8744-1.4353,0-2.4714-1.0792-2.4714-2.8923,0-1.4785,.6044-2.7304,1.6188-2.7304Z" fill="#eaeeb5"/>
        <path d="M52.6577,52.087h2.7197v-.1835c0-.1619,.1403-.3022,.3129-.3022,.1619,0,.3021,.1404,.3021,.3022v.1403c0,.5612,.2806,.7878,.9713,1.144,.2914,.1511,.2267,.5288-.1187,.5288h-.8527v.7015c0,.1727-.1403,.3129-.3021,.3129-.1727,0-.3129-.1403-.3129-.3129v-.7015h-2.5686c-.3453,0-.6799,.1187-.6799,.572,0,.4425,.4209,.6044,.3345,.8418-.1403,.3778-1.5217-.0755-1.5217-1.4676,0-.9929,.7338-1.5757,1.7159-1.5757Z" fill="#eaeeb5"/>
        <path d="M52.377,55.6938c1.3706,0,1.5757,1.2195,1.5757,2.9463h.3778c.4964,0,1.1979-.1295,1.1979-.6368,0-.6259-1.3275-.3561-1.3275-1.2627,0-.4101,.2159-.7015,.6152-.7015,.6799,0,1.2519,.6799,1.2519,1.921,0,2.3095-1.6836,2.3095-2.2125,2.3095h-1.2627c-.6691,0-.4209,.2375-.6152,.3562-.2482,.1511-1.0252-.1187-1.0252-.9281,0-.5288,.259-.8634,.777-.9929-.3562-.1835-.7878-.6691-.7878-1.3814,0-.9712,.572-1.6296,1.4353-1.6296Zm-.4964,2.1692c0,.5072,.4749,.777,.9281,.777h.5828c0-.9713-.3453-1.4353-.885-1.4353-.4425,0-.626,.259-.626,.6583Z" fill="#eaeeb5"/>
        <path d="M51.5677,61.1926h5.9681c.5611,0,.518-.2374,.7122-.2374,.0756,0,.1512,.0539,.1619,.1404l.2483,1.3598c.0539,.2697-.0648,.3778-.2483,.3778h-3.1513c.4749,.3237,.8094,.8202,.8094,1.5539,0,1.2843-1.0469,2.245-2.5578,2.245-1.5325,0-2.5685-.9714-2.5685-2.245,0-1.0791,.5504-1.4352,.5504-1.9749,0-.518-.5504-.6259-.5504-.9604,0-.2159,.1835-.2591,.626-.2591Zm.1943,2.6872c0,.5828,.6691,1.0793,1.7051,1.0793,1.0252,0,1.7051-.4532,1.7051-1.1007,0-.6261-.6907-1.0252-1.6943-1.0252-1.0469,0-1.7159,.464-1.7159,1.0467Z" fill="#eaeeb5"/>
        <path d="M51.136,67.0715c.2266,0,.205,.2373,.7662,.2373h5.6335c.5611,0,.518-.2373,.7122-.2373,.0756,0,.1404,.0538,.1619,.1403,.0216,.1403,.1943,1.0577,.2483,1.3598,.0431,.2805-.0648,.3778-.2483,.3778h-6.5076c-.5612,0-.5396,.2373-.7662,.2373-.0755,0-.1079-.0538-.1079-.1403v-1.8346c0-.0756,.0324-.1403,.1079-.1403Z" fill="#eaeeb5"/>
        <path d="M53.4671,69.5397c1.4893,0,2.6009,1.0685,2.6009,2.5361,0,1.457-1.0037,2.0721-1.975,2.0721-.3453,0-.4964-.1619-.4964-.6043v-2.5039c-.8418,.1943-1.4137,.831-1.4137,1.7808,0,.831,.5287,1.0144,.3777,1.2626-.2266,.4102-1.6188-.3021-1.6188-1.9425,0-1.5218,1.0252-2.6009,2.5254-2.6009Zm.8957,3.0865c.7555,.0324,1.1656-.2591,1.1656-.6907,0-.4532-.5288-.939-1.3275-.9498l.1619,1.6405Z" fill="#eaeeb5"/>
        <path d="M52.0425,74.6607c.626,0,.8418,.0972,.8418,.3131,0,.1943-.0215,.2697-.4424,.4424-.518,.2159-.9282,.7015-.9282,1.3382,0,.3886,.1727,.6369,.4749,.6369,.9605,0,.5503-2.5255,2.3958-2.5255,.9605,0,1.6836,.7231,1.6836,2.0075,0,.9064-.421,1.7914-.9497,1.7914-.5828,0-.7447-.1079-.7447-.2805,0-.2699,.1835-.3453,.4749-.518,.3993-.2483,.6583-.5504,.6583-1.0469,0-.3129-.1943-.5396-.4964-.5396-.9066,0-.7339,2.6441-2.234,2.6441-1.0144,0-1.8347-.8526-1.8347-2.1261,0-1.0901,.3993-2.1369,1.1008-2.1369Z" fill="#eaeeb5"/>
      </g>
    </g>
  </g>
</svg>