<?xml version="1.0" encoding="UTF-8"?>
<svg id="b" data-name="Layer 2" xmlns="http://www.w3.org/2000/svg" xmlns:xlink="http://www.w3.org/1999/xlink" viewBox="0 0 108.8814 108.8814">
  <defs>
    <clipPath id="d">
      <circle cx="54.4407" cy="54.4407" r="54.4407" fill="none"/>
    </clipPath>
    <pattern id="e" data-name="Stables" x="0" y="0" width="285" height="160" patternTransform="translate(-8127.6097 -8768.1305) rotate(-38) scale(.1)" patternUnits="userSpaceOnUse" viewBox="0 0 285 160">
      <g>
        <rect width="285" height="160" fill="none"/>
        <g>
          <path d="M177.6106,189.9507c14.0508,0,22.414-8.029,22.414-19.1523,0-22.5822-30.0252-14.6362-30.0252-28.604,0-4.3487,3.764-7.6104,8.7818-7.6104,4.8511,0,7.6948,2.2577,11.207,8.7818,1.5893,2.8431,2.1747,3.6796,4.0982,3.6796,2.091,0,2.2584-1.7561,2.2584-6.7746,0-6.2722-5.8543-10.2037-16.7272-10.2037-11.7931,0-20.5742,8.2802-20.5742,18.066,0,23.9197,28.9375,13.8834,28.9375,29.3561,0,4.4324-3.8471,7.6104-9.6177,7.6104-5.6876,0-11.124-3.7633-15.0548-12.3777-1.5049-3.2617-1.5049-4.5999-3.8471-4.5999-2.5926,0-3.0105,2.9268-3.0105,9.2835,0,7.8616,9.7014,12.5452,21.1596,12.5452Z" fill="#603813"/>
          <path d="M217.7837,189.9507c10.7884,0,14.3013-10.7054,11.3738-11.7924-1.8398-.6691-3.0943,2.5926-6.5234,2.5926-3.5122,0-4.4324-2.5926-4.4324-5.269v-19.9058h5.4364c1.3382,0,2.4252-1.087,2.4252-2.4252,0-1.2544-1.087-2.3415-2.4252-2.3415h-5.4364v-6.6078c0-2.6763-2.9275-3.178-4.0982-.9196-2.7601,5.3527-4.5162,7.5274-8.8656,7.5274h-1.087c-1.2544,0-2.3422,1.087-2.3422,2.3415,0,1.3382,1.0877,2.4252,2.3422,2.4252h1.4219v21.0766c0,7.6111,4.5162,13.298,12.211,13.298Z" fill="#603813"/>
          <path d="M246.1532,189.9507c5.5201,0,9.2835-3.3454,10.7054-6.1055,1.004,4.0145,3.5966,6.0218,7.6948,6.0218,6.2729,0,8.3632-6.0218,7.1925-7.9453-.9196-1.5056-2.7601,.4179-2.7601-4.7673v-9.7851c0-4.0982,0-17.1458-17.8979-17.1458-9.6184,0-14.8873,4.4331-14.8873,9.7021,0,3.0943,2.2584,4.7673,5.4364,4.7673,7.0258,0,4.9348-10.2875,9.7851-10.2875,3.9315,0,4.9348,5.4364,4.9348,9.2835v2.9275c-13.3817,0-22.8327,1.5893-22.8327,12.211,0,6.6909,5.1022,11.1233,12.6289,11.1233Zm-.9196-12.1273c0-4.182,3.5959-6.8583,11.1233-6.8583v4.5169c0,3.5122-2.091,7.1925-6.0218,7.1925-3.0943,0-5.1015-1.4219-5.1015-4.8511Z" fill="#603813"/>
          <path d="M278.1465,189.9507c2.5926,0,3.4285-4.2657,7.443-4.2657,4.182,0,6.942,4.2657,15.3046,4.2657,9.8695,0,17.3976-8.029,17.3976-19.9051,0-11.7094-7.4444-19.8221-17.3976-19.8221-5.6862,0-9.5333,2.5926-12.0422,6.2729v-24.4213c0-1.4219-.8372-2.3422-2.9275-1.9242l-10.5379,1.9242c-.6698,.083-1.0877,.6684-1.0877,1.2544,0,1.5049,1.8398,1.1707,1.8398,5.5194v46.2507c0,3.4292,.3349,4.8511,2.008,4.8511Zm10.7054-19.6547c0-7.7779,3.0936-13.1306,7.9453-13.1306,5.0178,0,8.53,5.269,8.53,13.2143,0,8.029-3.8471,13.2143-8.3639,13.2143s-8.1114-5.1852-8.1114-13.298Z" fill="#603813"/>
        </g>
        <g>
          <path d="M-6.8535,189.9507c2.5926,0,3.4285-4.2657,7.443-4.2657,4.182,0,6.942,4.2657,15.3046,4.2657,9.8695,0,17.3976-8.029,17.3976-19.9051,0-11.7094-7.4444-19.8221-17.3976-19.8221-5.6862,0-9.5333,2.5926-12.0422,6.2729v-24.4213c0-1.4219-.8372-2.3422-2.9275-1.9242l-10.5379,1.9242c-.6698,.083-1.0877,.6684-1.0877,1.2544,0,1.5049,1.8398,1.1707,1.8398,5.5194v46.2507c0,3.4292,.3349,4.8511,2.008,4.8511Zm10.7054-19.6547c0-7.7779,3.0936-13.1306,7.9453-13.1306,5.0178,0,8.53,5.269,8.53,13.2143,0,8.029-3.8471,13.2143-8.3639,13.2143s-8.1114-5.1852-8.1114-13.298Z" fill="#603813"/>
          <path d="M37.7849,189.2816h14.2176c.6698,0,1.087-.2512,1.087-.8365,0-1.7561-1.8391-1.5886-1.8391-5.9381v-50.4319c0-1.4219-.7535-2.2584-2.9275-1.9242-2.3415,.4186-9.4509,1.7568-10.5379,1.9242-.6698,.1667-1.087,.6684-1.087,1.2544,0,1.5049,1.8391,1.1707,1.8391,5.5194v43.6581c0,4.3494-1.8391,4.182-1.8391,5.9381,0,.5854,.5009,.8365,1.087,.8365Z" fill="#603813"/>
          <path d="M75.9821,189.9507c12.7119,0,18.2321-10.7891,15.0534-12.5452-1.9228-1.1707-3.3447,2.9268-9.7844,2.9268-7.3606,0-12.2947-4.4324-13.8003-10.9559h19.4042c3.4285,0,4.6829-1.1707,4.6829-3.8471,0-7.5274-4.7666-15.306-16.0581-15.306-11.3738,0-19.654,8.6151-19.654,20.1563,0,11.6256,8.3625,19.5709,20.1563,19.5709Zm-8.95-25.2578c.0837-6.1892,3.8485-10.2875,7.3606-10.2875,3.3447,0,5.6039,3.178,5.3527,9.033l-12.7133,1.2544Z" fill="#603813"/>
          <path d="M112.0723,189.9507c9.8695,0,16.4767-6.3567,16.4767-14.2183,0-11.6249-20.4912-10.2868-20.4912-17.3125,0-2.3415,1.7568-3.8471,4.182-3.8471,3.8471,0,6.1885,2.0073,8.1128,5.1015,1.3382,2.2584,1.9228,3.6803,4.0145,3.6803,1.3382,0,2.174-1.2544,2.174-5.7713,0-4.0975-6.8583-7.3599-13.8827-7.3599-9.9533,0-15.5571,5.6039-15.5571,13.0475,0,14.302,19.5716,11.1233,19.5716,18.567,0,2.3422-1.9242,3.6803-4.9355,3.6803-4.9341,0-8.6974-3.1787-10.3705-7.1932-1.3382-3.2617-1.9228-3.4285-3.4285-3.4285-1.6731,0-2.4266,1.6724-2.4266,6.5234,0,5.4364,8.1128,8.5307,16.5604,8.5307Z" fill="#603813"/>
        </g>
        <g>
          <path d="M177.6106,29.9507c14.0508,0,22.414-8.029,22.414-19.1523,0-22.5822-30.0252-14.6362-30.0252-28.604,0-4.3487,3.764-7.6104,8.7818-7.6104,4.8511,0,7.6948,2.2577,11.207,8.7818,1.5893,2.8431,2.1747,3.6796,4.0982,3.6796,2.091,0,2.2584-1.7561,2.2584-6.7746,0-6.2722-5.8543-10.2037-16.7272-10.2037-11.7931,0-20.5742,8.2802-20.5742,18.066,0,23.9197,28.9375,13.8834,28.9375,29.3561,0,4.4324-3.8471,7.6104-9.6177,7.6104-5.6876,0-11.124-3.7633-15.0548-12.3777-1.5049-3.2617-1.5049-4.5999-3.8471-4.5999-2.5926,0-3.0105,2.9268-3.0105,9.2835,0,7.8616,9.7014,12.5452,21.1596,12.5452Z" fill="#603813"/>
          <path d="M217.7837,29.9507c10.7884,0,14.3013-10.7054,11.3738-11.7924-1.8398-.6691-3.0943,2.5926-6.5234,2.5926-3.5122,0-4.4324-2.5926-4.4324-5.269V-4.4239h5.4364c1.3382,0,2.4252-1.087,2.4252-2.4252,0-1.2544-1.087-2.3415-2.4252-2.3415h-5.4364v-6.6078c0-2.6763-2.9275-3.178-4.0982-.9196-2.7601,5.3527-4.5162,7.5274-8.8656,7.5274h-1.087c-1.2544,0-2.3422,1.087-2.3422,2.3415,0,1.3382,1.0877,2.4252,2.3422,2.4252h1.4219V16.6527c0,7.6111,4.5162,13.298,12.211,13.298Z" fill="#603813"/>
          <path d="M246.1532,29.9507c5.5201,0,9.2835-3.3454,10.7054-6.1055,1.004,4.0145,3.5966,6.0218,7.6948,6.0218,6.2729,0,8.3632-6.0218,7.1925-7.9453-.9196-1.5056-2.7601,.4179-2.7601-4.7673V7.3692c0-4.0982,0-17.1458-17.8979-17.1458-9.6184,0-14.8873,4.4331-14.8873,9.7021,0,3.0943,2.2584,4.7673,5.4364,4.7673,7.0258,0,4.9348-10.2875,9.7851-10.2875,3.9315,0,4.9348,5.4364,4.9348,9.2835v2.9275c-13.3817,0-22.8327,1.5893-22.8327,12.211,0,6.6909,5.1022,11.1233,12.6289,11.1233Zm-.9196-12.1273c0-4.182,3.5959-6.8583,11.1233-6.8583v4.5169c0,3.5122-2.091,7.1925-6.0218,7.1925-3.0943,0-5.1015-1.4219-5.1015-4.8511Z" fill="#603813"/>
          <path d="M278.1465,29.9507c2.5926,0,3.4285-4.2657,7.443-4.2657,4.182,0,6.942,4.2657,15.3046,4.2657,9.8695,0,17.3976-8.029,17.3976-19.9051,0-11.7094-7.4444-19.8221-17.3976-19.8221-5.6862,0-9.5333,2.5926-12.0422,6.2729V-27.925c0-1.4219-.8372-2.3422-2.9275-1.9242l-10.5379,1.9242c-.6698,.083-1.0877,.6684-1.0877,1.2544,0,1.5049,1.8398,1.1707,1.8398,5.5194V25.0996c0,3.4292,.3349,4.8511,2.008,4.8511Zm10.7054-19.6547c0-7.7779,3.0936-13.1306,7.9453-13.1306,5.0178,0,8.53,5.269,8.53,13.2143,0,8.029-3.8471,13.2143-8.3639,13.2143s-8.1114-5.1852-8.1114-13.298Z" fill="#603813"/>
        </g>
        <g>
          <path d="M35.1106,109.9507c14.0508,0,22.414-8.029,22.414-19.1523,0-22.5822-30.0252-14.6362-30.0252-28.604,0-4.3487,3.764-7.6104,8.7818-7.6104,4.8511,0,7.6948,2.2577,11.207,8.7818,1.5893,2.8431,2.1747,3.6796,4.0982,3.6796,2.091,0,2.2584-1.7561,2.2584-6.7746,0-6.2722-5.8543-10.2037-16.7272-10.2037-11.7931,0-20.5742,8.2802-20.5742,18.066,0,23.9197,28.9375,13.8834,28.9375,29.3561,0,4.4324-3.8471,7.6104-9.6177,7.6104-5.6876,0-11.124-3.7633-15.0548-12.3777-1.5049-3.2617-1.5049-4.5999-3.8471-4.5999-2.5926,0-3.0105,2.9268-3.0105,9.2835,0,7.8616,9.7014,12.5452,21.1596,12.5452Z" fill="#603813"/>
          <path d="M75.2837,109.9507c10.7884,0,14.3013-10.7054,11.3738-11.7924-1.8398-.6691-3.0943,2.5926-6.5234,2.5926-3.5122,0-4.4324-2.5926-4.4324-5.269v-19.9058h5.4364c1.3382,0,2.4252-1.087,2.4252-2.4252,0-1.2544-1.087-2.3415-2.4252-2.3415h-5.4364v-6.6078c0-2.6763-2.9275-3.178-4.0982-.9196-2.7601,5.3527-4.5162,7.5274-8.8656,7.5274h-1.087c-1.2544,0-2.3422,1.087-2.3422,2.3415,0,1.3382,1.0877,2.4252,2.3422,2.4252h1.4219v21.0766c0,7.6111,4.5162,13.298,12.211,13.298Z" fill="#603813"/>
          <path d="M103.6532,109.9507c5.5201,0,9.2835-3.3454,10.7054-6.1055,1.004,4.0145,3.5966,6.0218,7.6948,6.0218,6.2729,0,8.3632-6.0218,7.1925-7.9453-.9196-1.5056-2.7601,.4179-2.7601-4.7673v-9.7851c0-4.0982,0-17.1458-17.8979-17.1458-9.6184,0-14.8873,4.4331-14.8873,9.7021,0,3.0943,2.2584,4.7673,5.4364,4.7673,7.0258,0,4.9348-10.2875,9.7851-10.2875,3.9315,0,4.9348,5.4364,4.9348,9.2835v2.9275c-13.3817,0-22.8327,1.5893-22.8327,12.211,0,6.6909,5.1022,11.1233,12.6289,11.1233Zm-.9196-12.1273c0-4.182,3.5959-6.8583,11.1233-6.8583v4.5169c0,3.5122-2.091,7.1925-6.0218,7.1925-3.0943,0-5.1015-1.4219-5.1015-4.8511Z" fill="#603813"/>
          <path d="M135.6465,109.9507c2.5926,0,3.4285-4.2657,7.443-4.2657,4.182,0,6.942,4.2657,15.3046,4.2657,9.8695,0,17.3976-8.029,17.3976-19.9051,0-11.7094-7.4444-19.8221-17.3976-19.8221-5.6862,0-9.5333,2.5926-12.0422,6.2729v-24.4213c0-1.4219-.8372-2.3422-2.9275-1.9242l-10.5379,1.9242c-.6698,.083-1.0877,.6684-1.0877,1.2544,0,1.5049,1.8398,1.1707,1.8398,5.5194v46.2507c0,3.4292,.3349,4.8511,2.008,4.8511Zm10.7054-19.6547c0-7.7779,3.0936-13.1306,7.9453-13.1306,5.0178,0,8.53,5.269,8.53,13.2143,0,8.029-3.8471,13.2143-8.3639,13.2143s-8.1114-5.1852-8.1114-13.298Z" fill="#603813"/>
          <path d="M180.2849,109.2816h14.2176c.6698,0,1.087-.2512,1.087-.8365,0-1.7561-1.8391-1.5886-1.8391-5.9381V52.075c0-1.4219-.7535-2.2584-2.9275-1.9242-2.3415,.4186-9.4509,1.7568-10.5379,1.9242-.6698,.1667-1.087,.6684-1.087,1.2544,0,1.5049,1.8391,1.1707,1.8391,5.5194v43.6581c0,4.3494-1.8391,4.182-1.8391,5.9381,0,.5854,.5009,.8365,1.087,.8365Z" fill="#603813"/>
          <path d="M218.4821,109.9507c12.7119,0,18.2321-10.7891,15.0534-12.5452-1.9228-1.1707-3.3447,2.9268-9.7844,2.9268-7.3606,0-12.2947-4.4324-13.8003-10.9559h19.4042c3.4285,0,4.6829-1.1707,4.6829-3.8471,0-7.5274-4.7666-15.306-16.0581-15.306-11.3738,0-19.654,8.6151-19.654,20.1563,0,11.6256,8.3625,19.5709,20.1563,19.5709Zm-8.95-25.2578c.0837-6.1892,3.8485-10.2875,7.3606-10.2875,3.3447,0,5.6039,3.178,5.3527,9.033l-12.7133,1.2544Z" fill="#603813"/>
          <path d="M254.5723,109.9507c9.8695,0,16.4767-6.3567,16.4767-14.2183,0-11.6249-20.4912-10.2868-20.4912-17.3125,0-2.3415,1.7568-3.8471,4.182-3.8471,3.8471,0,6.1885,2.0073,8.1128,5.1015,1.3382,2.2584,1.9228,3.6803,4.0145,3.6803,1.3382,0,2.174-1.2544,2.174-5.7713,0-4.0975-6.8583-7.3599-13.8827-7.3599-9.9533,0-15.5571,5.6039-15.5571,13.0475,0,14.302,19.5716,11.1233,19.5716,18.567,0,2.3422-1.9242,3.6803-4.9355,3.6803-4.9341,0-8.6974-3.1787-10.3705-7.1932-1.3382-3.2617-1.9228-3.4285-3.4285-3.4285-1.6731,0-2.4266,1.6724-2.4266,6.5234,0,5.4364,8.1128,8.5307,16.5604,8.5307Z" fill="#603813"/>
        </g>
        <g>
          <path d="M-6.8535,29.9507c2.5926,0,3.4285-4.2657,7.443-4.2657,4.182,0,6.942,4.2657,15.3046,4.2657,9.8695,0,17.3976-8.029,17.3976-19.9051,0-11.7094-7.4444-19.8221-17.3976-19.8221-5.6862,0-9.5333,2.5926-12.0422,6.2729V-27.925c0-1.4219-.8372-2.3422-2.9275-1.9242l-10.5379,1.9242c-.6698,.083-1.0877,.6684-1.0877,1.2544,0,1.5049,1.8398,1.1707,1.8398,5.5194V25.0996c0,3.4292,.3349,4.8511,2.008,4.8511ZM3.8519,10.296C3.8519,2.5181,6.9455-2.8346,11.7972-2.8346c5.0178,0,8.53,5.269,8.53,13.2143,0,8.029-3.8471,13.2143-8.3639,13.2143S3.8519,18.4087,3.8519,10.296Z" fill="#603813"/>
          <path d="M37.7849,29.2816h14.2176c.6698,0,1.087-.2512,1.087-.8365,0-1.7561-1.8391-1.5886-1.8391-5.9381V-27.925c0-1.4219-.7535-2.2584-2.9275-1.9242-2.3415,.4186-9.4509,1.7568-10.5379,1.9242-.6698,.1667-1.087,.6684-1.087,1.2544,0,1.5049,1.8391,1.1707,1.8391,5.5194V22.507c0,4.3494-1.8391,4.182-1.8391,5.9381,0,.5854,.5009,.8365,1.087,.8365Z" fill="#603813"/>
          <path d="M75.9821,29.9507c12.7119,0,18.2321-10.7891,15.0534-12.5452-1.9228-1.1707-3.3447,2.9268-9.7844,2.9268-7.3606,0-12.2947-4.4324-13.8003-10.9559h19.4042c3.4285,0,4.6829-1.1707,4.6829-3.8471,0-7.5274-4.7666-15.306-16.0581-15.306-11.3738,0-19.654,8.6151-19.654,20.1563,0,11.6256,8.3625,19.5709,20.1563,19.5709Zm-8.95-25.2578c.0837-6.1892,3.8485-10.2875,7.3606-10.2875,3.3447,0,5.6039,3.178,5.3527,9.033l-12.7133,1.2544Z" fill="#603813"/>
          <path d="M112.0723,29.9507c9.8695,0,16.4767-6.3567,16.4767-14.2183,0-11.6249-20.4912-10.2868-20.4912-17.3125,0-2.3415,1.7568-3.8471,4.182-3.8471,3.8471,0,6.1885,2.0073,8.1128,5.1015,1.3382,2.2584,1.9228,3.6803,4.0145,3.6803,1.3382,0,2.174-1.2544,2.174-5.7713,0-4.0975-6.8583-7.3599-13.8827-7.3599-9.9533,0-15.5571,5.6039-15.5571,13.0475,0,14.302,19.5716,11.1233,19.5716,18.567,0,2.3422-1.9242,3.6803-4.9355,3.6803-4.9341,0-8.6974-3.1787-10.3705-7.1932-1.3382-3.2617-1.9228-3.4285-3.4285-3.4285-1.6731,0-2.4266,1.6724-2.4266,6.5234,0,5.4364,8.1128,8.5307,16.5604,8.5307Z" fill="#603813"/>
        </g>
      </g>
    </pattern>
  </defs>
  <g id="c" data-name="Layer 1">
    <g>
      <circle cx="54.4407" cy="54.4407" r="54.4407" fill="#b0ccc2"/>
      <g clip-path="url(#d)">
        <g>
          <path d="M43.1529-7.4828l1.885,46.7371c1.2319-1.6741,4.9741-2.8918,9.4021-2.8918s8.1702,1.2178,9.4021,2.8918l1.885-46.7371h-22.5742Z" fill="#eaeeb5" stroke="#231f20" stroke-miterlimit="10"/>
          <path d="M54.44,36.3624c-4.428,0-8.1702,1.2178-9.4021,2.8918l2.115,52.4365c0-1.3123,3.2625-2.3762,7.2871-2.3762s7.2871,1.064,7.2871,2.3762l2.115-52.4365c-1.2319-1.6741-4.9741-2.8918-9.4021-2.8918Z" fill="#d9daa8" stroke="#231f20" stroke-miterlimit="10"/>
          <ellipse cx="54.44" cy="91.6908" rx="7.2871" ry="2.3762" fill="#c0c096" stroke="#231f20" stroke-miterlimit="10"/>
          <path d="M54.4414,0c-4.428,0-9.7097-.5738-10.9416,1.1003l3.6538,90.5905c0-1.3123,3.2625-2.3762,7.2871-2.3762s7.2871,1.064,7.2871,2.3762L65.3816,1.0999c-1.2319-1.6741-6.5123-1.0999-10.9403-1.0999Z" fill="url(#e)" opacity=".2" stroke="#231f20" stroke-miterlimit="10"/>
        </g>
      </g>
    </g>
  </g>
</svg>