<?xml version="1.0" encoding="UTF-8"?>
<svg id="b" data-name="Layer 2" xmlns="http://www.w3.org/2000/svg" xmlns:xlink="http://www.w3.org/1999/xlink" viewBox="0 0 108.8814 108.8814">
  <defs>
    <clipPath id="d">
      <circle cx="54.4407" cy="54.4407" r="54.4407" fill="none"/>
    </clipPath>
  </defs>
  <g id="c" data-name="Layer 1">
    <g>
      <g>
        <circle cx="54.4407" cy="54.4407" r="54.4407" fill="#b0ccc2"/>
        <g clip-path="url(#d)">
          <g>
            <path d="M43.1529-7.4828l1.885,46.7371c1.2319-1.6741,4.9741-2.8918,9.4021-2.8918s8.1702,1.2178,9.4021,2.8918l1.885-46.7371h-22.5742Z" fill="#eaeeb5" stroke="#231f20" stroke-miterlimit="10"/>
            <path d="M54.44,36.3624c-4.428,0-8.1702,1.2178-9.4021,2.8918l2.115,52.4365c0-1.3123,3.2625-2.3762,7.2871-2.3762s7.2871,1.064,7.2871,2.3762l2.115-52.4365c-1.2319-1.6741-4.9741-2.8918-9.4021-2.8918Z" fill="#d9daa8" stroke="#231f20" stroke-miterlimit="10"/>
            <ellipse cx="54.44" cy="91.6908" rx="7.2871" ry="2.3762" fill="#c0c096" stroke="#231f20" stroke-miterlimit="10"/>
          </g>
        </g>
      </g>
      <circle cx="54.5439" cy="55.1325" r="6.95" fill="#ef5a28"/>
      <polygon points="45.3431 59.0511 63.5394 59.0511 63.8702 51.0173 45.0495 51.0173 45.3431 59.0511" fill="#ef5a28"/>
      <g>
        <path d="M46.1012,56.2756c0-.4175,.0274-.6097,.1977-.6097,.1538,0,.1538,.0879,.2527,.3021,.2582,.5658,.6152,.8129,.9888,.8129,.379,0,.6317-.2087,.6317-.4998,0-1.0162-1.9005-.357-1.9005-1.928,0-.6427,.5767-1.1865,1.3513-1.1865,.7141,0,1.0986,.2582,1.0986,.6702,0,.3296-.011,.4449-.1483,.4449-.1263,0-.1648-.0549-.2692-.2417-.2307-.4285-.4174-.5768-.736-.5768-.3296,0-.5768,.2142-.5768,.4998,0,.9174,1.972,.3955,1.972,1.8786,0,.7305-.5493,1.2579-1.4721,1.2579-.7525,0-1.3897-.3076-1.3897-.8239Z" fill="#fff"/>
        <path d="M49.3273,56.2262v-1.3842h-.0934c-.0824,0-.1538-.0714-.1538-.1593,0-.0824,.0714-.1538,.1538-.1538h.0714c.2857,0,.401-.1428,.5823-.4944,.0769-.1483,.2692-.1154,.2692,.0604v.434h.357c.0879,0,.1593,.0714,.1593,.1538,0,.0879-.0714,.1593-.1593,.1593h-.357v1.3074c0,.1758,.0604,.3461,.2911,.3461,.2252,0,.3076-.2142,.4284-.1703,.1923,.0714-.0384,.7745-.747,.7745-.5054,0-.802-.3735-.802-.8734Z" fill="#fff"/>
        <path d="M51.1631,56.369c0-.6976,.6207-.802,1.4996-.802v-.1923c0-.2527-.0659-.6097-.3241-.6097-.3186,0-.1812,.6757-.6427,.6757-.2087,0-.357-.1099-.357-.3131,0-.3461,.3461-.6372,.9778-.6372,1.1755,0,1.1755,.8569,1.1755,1.1261v.6427c0,.3406,.1209,.2142,.1813,.3131,.0769,.1263-.0604,.5218-.4724,.5218-.2692,0-.4394-.1318-.5054-.3955-.0934,.1813-.3406,.401-.7031,.401-.4943,0-.8294-.2911-.8294-.7305Zm1.1041,.2527c.2582,0,.3955-.2417,.3955-.4724v-.2967c-.4944,0-.7305,.1758-.7305,.4504,0,.2252,.1318,.3186,.3351,.3186Z" fill="#fff"/>
        <path d="M53.9619,56.7809v-3.0376c0-.2856-.1208-.2637-.1208-.3625,0-.0385,.0274-.0769,.0714-.0824l.6921-.1264c.1373-.0274,.1923,.033,.1923,.1264v1.6039c.1648-.2417,.4174-.412,.7909-.412,.6537,0,1.1426,.5328,1.1426,1.3019,0,.78-.4944,1.3073-1.1426,1.3073-.5492,0-.7305-.2802-1.0052-.2802-.2637,0-.3186,.2802-.4888,.2802-.1099,0-.1319-.0934-.1319-.3186Zm1.3677-.0989c.2967,0,.5493-.3406,.5493-.8679,0-.5218-.2307-.8679-.5602-.8679-.3186,0-.5218,.3515-.5218,.8624,0,.5328,.2362,.8734,.5327,.8734Z" fill="#fff"/>
        <path d="M56.9541,57.0006c0-.1153,.1208-.1043,.1208-.39v-2.8673c0-.2856-.1208-.2637-.1208-.3625,0-.0385,.0274-.0714,.0714-.0824,.0714-.011,.5383-.0989,.6921-.1264,.1428-.0219,.1923,.033,.1923,.1264v3.3122c0,.2857,.1208,.2747,.1208,.39,0,.0384-.0274,.0549-.0714,.0549h-.9338c-.0385,0-.0714-.0165-.0714-.0549Z" fill="#fff"/>
        <path d="M58.2104,55.8142c0-.758,.5438-1.3238,1.2908-1.3238,.7416,0,1.0546,.5109,1.0546,1.0053,0,.1758-.0824,.2527-.3076,.2527h-1.2744c.0989,.4284,.4229,.7195,.9064,.7195,.4229,0,.5163-.2691,.6426-.1922,.2088,.1153-.1538,.8239-.9887,.8239-.7746,0-1.3238-.5218-1.3238-1.2854Zm1.571-.4559c.0165-.3845-.1319-.5933-.3515-.5933-.2307,0-.4779,.2692-.4834,.6757l.835-.0824Z" fill="#fff"/>
        <path d="M60.8168,56.5393c0-.3186,.0495-.4284,.1594-.4284,.0989,0,.1373,.011,.2252,.2252,.1099,.2637,.357,.4724,.6811,.4724,.1978,0,.3241-.0879,.3241-.2417,0-.4889-1.2854-.2801-1.2854-1.2194,0-.4889,.368-.8569,1.0217-.8569,.4613,0,.9118,.2143,.9118,.4834,0,.2967-.0549,.379-.1428,.379-.1374,0-.1758-.0934-.2637-.2417-.1264-.2032-.2802-.3351-.5328-.3351-.1593,0-.2747,.0989-.2747,.2527,0,.4614,1.3458,.3735,1.3458,1.137,0,.5163-.4339,.9338-1.0821,.9338-.5548,0-1.0876-.2032-1.0876-.5603Z" fill="#fff"/>
      </g>
    </g>
  </g>
</svg>