<svg width="300" height="558" xmlns="http://www.w3.org/2000/svg">

 <g>
  <title>Layer 1</title>
  <g>
   <defs transform="translate(-1 0) translate(-1 0) translate(-1 0) translate(-1 0) translate(-1 0) translate(-1 0) translate(1 0) translate(1 0) translate(-0.0599976 0) translate(3 58) translate(38 -100) translate(-298 1) translate(13 33) translate(285.06 0) translate(0 27.405)">
    <clipPath id="svg_3">
     <rect fill="none" height="466.75" width="217.72" y="91.86501" x="45.4" class="cls-1"/>
    </clipPath>
   </defs>
   <g data-name="Layer 1" id="svg_2">
    <path fill="#fff" d="m149.78,134.36501c-4.88,-29.09 20.22,-37.87999 17.31,-59.79c-1.76999,-9.42999 -9.98999,-16.64 -16.39999,-24.1c-7.20999,-8.13 -15.94,-19.31 -13.03,-31.06c2.87,11.13 11.42001,17.2 19.63,24.35c10.01999,8.3 21.82001,19.9 20.48999,34.4c-0.24002,4.76 -1.53998,9.61 -3.69,13.81c-2.85999,5.62 -6.78,9.97 -10.25,14.11c-3.53,4.12001 -6.73999,8.19 -9.14001,12.87999c-2.42999,4.66002 -3.93997,9.90001 -4.92999,15.41002l0,0l0.01001,-0.01001z" class="cls-6"/>
    <g clip-path="url(#svg_3)" class="cls-4">
     <g>
      <path fill="#eaeeb5" stroke-width="6px" stroke-miterlimit="10" stroke="#231f20" d="m204.45999,438.94501l-45.80997,-63.87s-12.90002,-14.84 8.38998,-32.26001l65.16,78.06" class="cls-3"/>
      <path fill="#eaeeb5" stroke-width="6px" stroke-miterlimit="10" stroke="#231f20" d="m204.45999,408.285l-45.80997,-63.87s-12.90002,-14.84 8.38998,-32.26001l65.16,78.06" class="cls-3"/>
      <path fill="#eaeeb5" stroke-width="6px" stroke-miterlimit="10" stroke="#231f20" d="m204.45999,378.815l-45.80997,-63.87s-12.90002,-14.84 8.38998,-32.26001l65.16,78.06" class="cls-3"/>
      <g>
       <polygon fill="#603813" points="145.8800048828125,320.4750061035156 142.51998901367188,136.99501037597656 159.38998413085938,136.99501037597656 156.02999877929688,320.4750061035156 145.8800048828125,320.4750061035156 " class="cls-8"/>
       <path fill="#231f20" d="m157.35001,138.99501l-3.28,179.47997l-6.23001,0l-3.28,-179.47997l12.79999,0m4.07001,-4l-20.94,0l0.07001,4.07001l3.28,179.47997l0.07001,3.92999l14.07999,0l0.07001,-3.92999l3.28,-179.47997l0.07001,-4.07001l0,0l0.01999,0z" class="cls-7"/>
      </g>
      <g>
       <path fill="#eaeeb5" d="m94.28,561.61505l23.62,-39.82001c-8.41,-4.60004 -30.69,-19.78003 -24.51999,-48.96002l35.54999,-172.48999l3.31,1.28c0.89001,0.34998 21.92001,8.72998 21.92001,30.53998l-0.64001,49.39001c0.64999,3.01001 7.39001,31.06 33.41,40.28l14.58002,-74.14001l-44.99002,-62.72998c-0.78,-0.96002 -5.13,-6.69 -4.41998,-15c0.63998,-7.51999 5.10999,-14.72 13.28,-21.41l2.29999,-1.88l67.76001,81.17999l0,137.37l-55.46002,96.39005l-85.69998,0z" class="cls-5"/>
       <path fill="#231f20" d="m167.28998,250.875l65.16,78.06l0,135.47998l-54.18997,94.19006l-78.71002,0l22.58002,-38.06s-32.89999,-13.55005 -25.81,-47.10004l34.84,-169.03s20,7.73999 20,27.73999l-0.64999,49.67999s6.44998,34.84 38.70999,43.87l15.47998,-78.70999l-45.80997,-63.87s-12.90002,-14.84 8.38998,-32.25998m0.80002,-8.41l-4.60001,3.76001c-8.83002,7.21997 -13.66,15.11996 -14.37,23.47998c-0.78,9.23999 3.81998,15.60001 5.03,17.09l44.16998,61.59l-13.64001,69.32999c-8.84,-3.91998 -16.06,-10.62 -21.50998,-19.98999c-4.42001,-7.59 -6.20999,-14.57001 -6.64999,-16.48001l0.63998,-49.00998l0,-0.04001s0,-0.03998 0,-0.03998c0,-23.84 -22.86002,-32.96002 -23.82999,-33.34l-6.61002,-2.56003l-1.42999,6.94l-34.84,169.02997c-3.32999,15.73004 0.75,30.09003 11.81,41.51007c3.98001,4.10999 8.19998,7.12 11.51001,9.13995l-19.37003,32.66003l-5.38,9.06l92.70999,0l1.73001,-3.01001l54.19,-94.19l0.79999,-1.39001l0,-139.25998l-1.38998,-1.67001l-65.16,-78.05997l-3.81,-4.56003l0,0l0.00003,0.01001z" class="cls-7"/>
      </g>
      <polyline stroke-width="6px" stroke-miterlimit="10" stroke="#231f20" fill="none" points="161.60000610351562,254.9949951171875 178.16000366210938,274.375 193.489990234375,276.364990234375 " class="cls-2"/>
      <polyline stroke-width="6px" stroke-miterlimit="10" stroke="#231f20" fill="none" points="139.38998413085938,307.0450134277344 135.04998779296875,335.31500244140625 118.8900146484375,350.4549865722656 " class="cls-2"/>
      <g>
       <path fill="#eaeeb5" d="m150.95001,138.81502c-5.63,0 -8.67001,-1.87001 -8.67001,-2.63s3.04001,-2.63 8.67001,-2.63s8.66998,1.87 8.66998,2.63s-3.04001,2.63 -8.66998,2.63z" class="cls-5"/>
       <path fill="#231f20" d="m150.95001,135.05501c2.96997,0 5.19998,0.58 6.39999,1.13c-1.20001,0.55 -3.43002,1.13 -6.39999,1.13s-5.20001,-0.58 -6.40002,-1.13c1.20001,-0.55 3.43002,-1.13 6.40002,-1.13m0,-3c-5.62,0 -10.17001,1.85001 -10.17001,4.13s4.55002,4.13 10.17001,4.13s10.16998,-1.85001 10.16998,-4.13s-4.54999,-4.13 -10.16998,-4.13l0,0z" class="cls-7"/>
      </g>
     </g>
    </g>
    <path fill="#603813" d="m65.20999,195.01501c0,-24.72 -3.48999,-28.21001 -28.20999,-28.21001c24.72,0 28.20999,-3.48999 28.20999,-28.20999c0,24.72 3.49002,28.20999 28.21002,28.20999c-24.72,0 -28.21002,3.49001 -28.21002,28.21001z" class="cls-8"/>
    <path fill="#603813" d="m208.47,250.69501c0,-22.09 -3.11002,-25.20001 -25.19998,-25.20001c22.08997,0 25.19998,-3.10999 25.19998,-25.2c0,22.09001 3.10999,25.2 25.19998,25.2c-22.09,0 -25.19998,3.11002 -25.19998,25.20001z" class="cls-8"/>
    <path fill="#603813" d="m227.42999,160.68501c0,-34.58 -4.88,-39.45 -39.45001,-39.45c34.58002,0 39.45001,-4.88 39.45001,-39.45c0,34.57999 4.88,39.45 39.45001,39.45c-34.58002,0 -39.45001,4.87999 -39.45001,39.45z" class="cls-8"/>
   </g>
  </g>
 </g>
</svg>