<?xml version="1.0" encoding="UTF-8"?>
<svg id="b" data-name="Layer 2" xmlns="http://www.w3.org/2000/svg" viewBox="0 0 85.568 85.6498">
  <g id="c" data-name="Layer 1">
    <g>
      <path d="M82.8037,37.3561c-.1923-1.5013,.1201-2.2832,.5461-3.2462,.2123-.4913,.3958-1.0157,.4937-1.6631,.1053-.6488,.0655-1.4079-.225-2.3373-.2649-.937-.714-1.5682-1.1382-2.0537-.4251-.4866-.9148-.798-1.3596-1.0853-.4322-.2756-.824-.5287-1.1938-.8747-.3833-.3403-.7339-.7768-1.0561-1.4387l-.0316-.0589c-.7078-1.3365-.6001-2.2129-.5492-3.2397,.0723-1.0559,.1061-2.2953-1.0413-3.876-.578-.7838-1.1643-1.2677-1.7489-1.5684-.5805-.3045-1.1068-.4718-1.6342-.5865-1.0056-.2324-1.8254-.4293-2.8905-1.4441l-.0496-.0448c-.5276-.5444-.8798-.9841-1.0918-1.4615-.2161-.4731-.3323-.9384-.4768-1.429-.145-.5057-.302-1.0578-.6238-1.6277-.3373-.5482-.8181-1.1474-1.6191-1.7002-1.6077-1.1083-2.8594-1.0178-3.8978-.9431-1.0333,.1184-1.8646,.1802-3.2051-.4263l-.0616-.026c-.6777-.3397-1.1454-.6583-1.5051-1.031-.362-.3665-.6147-.7885-.9118-1.2017-.3009-.4312-.6308-.8948-1.118-1.3351-.4918-.4243-1.1498-.8066-2.081-1.0905-1.8839-.5168-3.0356-.0382-3.9957,.3776-.4649,.2007-.8963,.4207-1.3879,.5402-.4925,.1218-1.047,.1581-1.7811,.0965l-.0668-.004c-1.5017-.1863-2.1831-.6742-3.0122-1.3306-.8458-.6024-1.8647-1.3436-3.8159-1.2355-1.9485,.1246-2.8834,.9352-3.652,1.6634-.7504,.6783-1.3526,1.3195-2.7936,1.6132l-.0642,.0193c-1.4698,.3603-2.2929,.0399-3.2752-.2617-1.0063-.3328-2.1968-.6671-4.0128,.0512-1.8125,.7284-2.4195,1.8346-2.9255,2.7432-.4674,.9282-.87,1.6579-2.1102,2.449l-.0555,.0374c-.6549,.3814-1.1773,.5989-1.6855,.6973-.5034,.1049-.9975,.0827-1.5052,.1071-.5252,.0171-1.0934,.0412-1.728,.2097-.6278,.1758-1.3011,.5262-2.0511,1.1471-.7153,.6601-1.1603,1.2729-1.4158,1.8754-.2546,.6046-.3569,1.1634-.4463,1.6805-.088,.4968-.1372,.9801-.3059,1.457-.1663,.4797-.4392,.9637-.8924,1.5447l-.0399,.0538c-.9761,1.1567-1.76,1.4587-2.761,1.7945-.9718,.3754-2.1392,.8276-3.127,2.5127-.4804,.8461-.6726,1.5862-.7402,2.228-.0426,.6558,.0436,1.2188,.1283,1.738,.075,.4976,.1763,.9669,.1779,1.476,.009,.5123-.1114,1.0513-.3463,1.7499l-.02,.0639c-.5406,1.4136-1.1995,1.9471-2.028,2.5925-.8004,.6683-1.7662,1.4738-2.1431,3.3912-.3642,1.9187,.1952,3.0261,.709,3.9502,.4748,.8944,.9425,1.6358,.8827,3.104l.0026,.067c-.0057,.7574-.1394,1.3137-.3422,1.7932-.1809,.4789-.4391,.8795-.7156,1.3189-.2872,.4501-.5855,.9395-.7662,1.5611-.1849,.6208-.311,1.3816-.1561,2.3431,.0695,.4813,.171,.8993,.3003,1.2645,.1453,.3624,.312,.6732,.4906,.9459,.3631,.5443,.7473,.9418,1.1565,1.2939,.7781,.6822,1.3936,1.2501,1.8522,2.6482l.0224,.063c.2068,.7294,.2913,1.2885,.2604,1.8056-.0223,.5136-.166,.987-.2693,1.4855-.2288,1.023-.4808,2.2432,.3833,3.9963,.4524,.8619,.9585,1.4326,1.463,1.8383,.5258,.3944,1.0443,.6301,1.5253,.843,.4574,.2094,.9058,.3809,1.3335,.6572,.4356,.2711,.8182,.6684,1.2765,1.2455l.0427,.0516c.891,1.2231,.9755,2.0688,1.0669,3.1132,.0462,.5345,.1358,1.0824,.3582,1.6989,.2166,.6214,.6202,1.2639,1.3135,1.9476,1.4073,1.353,2.6412,1.4878,3.695,1.5635,1.0094,.0897,1.8837,.1071,3.0827,.9572l.0574,.0346c1.2473,.8571,1.5888,1.6489,2.0222,2.5934,.2157,.4926,.4724,.9909,.8868,1.4941,.207,.2517,.454,.5035,.7567,.7502,.3097,.233,.6779,.4557,1.1162,.6667,1.7679,.8268,2.9792,.5578,4.0014,.2866,.9852-.2428,1.8165-.5072,3.2251-.0861l.0655,.0138c.7331,.1908,1.24,.4546,1.6544,.7703,.4176,.3005,.7435,.6434,1.1007,1.0209,.3657,.3868,.7656,.8006,1.3235,1.1288,.556,.3333,1.2626,.6404,2.2331,.7292,.9669,.1191,1.7219-.0062,2.3386-.2225,.6168-.208,1.0969-.5012,1.5385-.8075,.8523-.5717,1.5519-1.054,3.0199-1.1454l.0666-.006c.7573-.0251,1.3197,.0182,1.8146,.1843,.4945,.1613,.9158,.3922,1.3746,.6167,.4705,.2368,.982,.4881,1.6204,.6445,.6331,.1301,1.3941,.1574,2.3476-.0357,.9433-.2375,1.6243-.5702,2.1384-.9697,.5117-.4116,.8679-.8554,1.1929-1.2685,.3159-.3908,.5921-.785,.9657-1.1306,.3695-.3568,.8506-.6261,1.5227-.9284l.0605-.0287c1.4041-.5644,2.2474-.4297,3.2791-.267,.5315,.0915,1.0853,.1416,1.7355,.0739,.3241-.0354,.6707-.1037,1.0429-.2224,.3634-.1339,.7522-.3193,1.1685-.5715,1.6589-1.0298,2.0961-2.1903,2.426-3.1959,.3338-.9588,.5672-1.7975,1.6876-2.7496l.0483-.0463c.5592-.5111,1.0562-.7926,1.5463-.9683,.4832-.1824,.9453-.2716,1.457-.3643,.522-.097,1.0895-.2037,1.6685-.4922,.5822-.2841,1.2251-.7081,1.83-1.4716,.6279-.7443,.934-1.4458,1.092-2.0787,.1667-.6274,.1774-1.1943,.1649-1.7301-.0064-.5125-.0164-.9835,.076-1.4791,.0794-.5041,.2472-1.0401,.6239-1.6727l.0318-.0588c.7354-1.3217,1.5249-1.713,2.4139-2.2305,.9226-.5171,1.9807-1.1645,2.6773-2.9886,.1677-.4566,.2751-.8736,.3369-1.2559,.0522-.3857,.0486-.7405,.0231-1.0651-.0584-.6517-.2104-1.1854-.4008-1.6897-.3506-.9688-.6368-1.7642-.366-3.2099l.0106-.0661c.166-.7395,.3439-1.2741,.6278-1.7125,.2789-.4393,.6048-.7908,.9364-1.1801,.3448-.3977,.7189-.8313,1.0233-1.4123,.2752-.5824,.5072-1.3134,.538-2.2866,.0428-1.9535-.7153-2.9508-1.3493-3.7787-.3132-.4006-.6298-.7644-.8678-1.2114-.2404-.4471-.4099-.9758-.5328-1.7025l-.0127-.0657Z" style="fill: #ef5a28;"/>
      <text transform="translate(13.8337 60.5831) rotate(-12.5082)" style="fill: #eaeeb5; font-family: MADEMellow-Medium, &apos;MADE Mellow&apos;; font-size: 35.9338px; font-weight: 500;"><tspan x="0" y="0" style="letter-spacing: -.0057em;">n</tspan><tspan x="19.4512" y="0" style="letter-spacing: -.0114em;">e</tspan><tspan x="36.541" y="0">w</tspan></text>
    </g>
  </g>
</svg>