<?xml version="1.0" encoding="UTF-8"?>
<svg id="Layer_2" data-name="Layer 2" xmlns="http://www.w3.org/2000/svg" xmlns:xlink="http://www.w3.org/1999/xlink" viewBox="0 0 143.03519 143.03519">
  <defs>
    <style>
      .cls-1, .cls-2, .cls-3 {
        fill: none;
      }

      .cls-4 {
        clip-path: url(#clippath);
      }

      .cls-2 {
        stroke-width: 4.67901px;
      }

      .cls-2, .cls-5, .cls-6, .cls-7, .cls-3 {
        stroke: #221f1f;
        stroke-miterlimit: 10;
      }

      .cls-2, .cls-3 {
        stroke-linecap: round;
      }

      .cls-8 {
        fill: #afcbc1;
      }

      .cls-9 {
        fill: #221f1f;
      }

      .cls-5 {
        fill: #d8d9a7;
      }

      .cls-5, .cls-6, .cls-7 {
        stroke-width: 1.31368px;
      }

      .cls-6 {
        fill: #bfbf94;
      }

      .cls-7 {
        fill: #e9edb4;
      }

      .cls-3 {
        stroke-width: 2.84409px;
      }
    </style>
    <clipPath id="clippath">
      <circle class="cls-1" cx="71.5176" cy="71.5176" r="71.5176"/>
    </clipPath>
  </defs>
  <g id="Layer_1-2" data-name="Layer 1">
    <g>
      <g>
        <circle class="cls-8" cx="71.5176" cy="71.5176" r="71.5176"/>
        <g class="cls-4">
          <g>
            <path class="cls-7" d="m56.68907-9.83001l2.4763,61.39749c1.61837-2.19919,6.5344-3.79896,12.35134-3.79896s10.73298,1.59976,12.35134,3.79896l2.4763-61.39749h-29.65528Z"/>
            <path class="cls-5" d="m71.51671,47.76852c-5.81694,0-10.73298,1.59976-12.35134,3.79896l2.77842,68.88476c0-1.72388,4.28581-3.12159,9.57292-3.12159s9.57292,1.39771,9.57292,3.12159l2.77842-68.88476c-1.61837-2.19919-6.5344-3.79896-12.35134-3.79896Z"/>
            <ellipse class="cls-6" cx="71.51671" cy="120.45224" rx="9.57292" ry="3.12159"/>
          </g>
        </g>
      </g>
      <g>
        <path class="cls-2" d="m90.98441,76.68195c8.84253-2.00854,14.62866-5.34827,14.62866-9.12927,0-6.14014-15.26489-11.11841-34.09631-11.11841s-34.09656,4.97827-34.09656,11.11841c0,2.14685,1.8656,4.15149,5.09692,5.85095"/>
        <polygon class="cls-9" points="38.24344 78.99079 52.04874 76.68195 43.14811 65.87946 38.24344 78.99079"/>
      </g>
      <g>
        <line class="cls-3" x1="71.60221" y1="86.59504" x2="71.60221" y2="105.09137"/>
        <polygon class="cls-9" points="65.9296 103.43158 71.60221 113.25531 77.27469 103.43158 65.9296 103.43158"/>
      </g>
      <g>
        <line class="cls-3" x1="71.60221" y1="29.26789" x2="71.60221" y2="10.77155"/>
        <polygon class="cls-9" points="77.27469 12.43134 71.60221 2.60761 65.9296 12.43134 77.27469 12.43134"/>
      </g>
    </g>
  </g>
</svg>