<svg version="1.1" id="Layer_1" xmlns="http://www.w3.org/2000/svg" x="0" y="0" viewBox="0 0 398.5 65" xml:space="preserve"><style>.st0{fill:#d3c7c0}.st1{fill:#464a66}</style><path class="st0" d="M36.9 48.6c0-10-8.1-18.1-18.1-18.1H6.7c-2.2 0-4 1.8-4 4v4.8c0 11.3 9.1 20.4 20.4 20.4h16.2"/><path class="st1" d="M39.3 62.4H23.1C10.4 62.4 0 52 0 39.3v-4.9c0-3.7 3-6.7 6.7-6.7h12.1c11.5 0 20.8 9.3 20.8 20.8 0 1.5-1.2 2.7-2.7 2.7s-2.7-1.2-2.7-2.7c0-8.5-6.9-15.4-15.4-15.4H6.7c-.7 0-1.3.6-1.3 1.3v4.9C5.4 49 13.3 57 23.1 57h16.2c1.5 0 2.7 1.2 2.7 2.7s-1.2 2.7-2.7 2.7z"/><circle class="st0" cx="11.1" cy="13.5" r="7.2"/><path class="st1" d="M11.1 23.4c-5.4 0-9.9-4.4-9.9-9.9 0-5.4 4.4-9.9 9.9-9.9S21 8 21 13.5c-.1 5.5-4.5 9.9-9.9 9.9zm0-14.3c-2.5 0-4.5 2-4.5 4.5s2 4.5 4.5 4.5 4.5-2 4.5-4.5c-.1-2.5-2.1-4.5-4.5-4.5z"/><path class="st1" d="M46.2 65c-6.6 0-12-5.4-12-12V20.6c0-8.3-6.8-15.1-15.1-15.1-4.3 0-8.5 1.9-11.4 5.1-1 1.1-2.7 1.2-3.8.2S2.7 8.1 3.7 7c3.9-4.4 9.5-7 15.4-7 11.3 0 20.5 9.2 20.5 20.5V53c0 3.6 3 6.6 6.6 6.6 1.5 0 2.7 1.2 2.7 2.7 0 1.5-1.2 2.7-2.7 2.7z"/><path d="M75.1 10.5c2.4 0 3.7.4 3.7.4l15.5 43.7s-1.1.4-3.4.4c-2.1 0-3.1-.4-3.1-.4L84 43.7H65.7l-3.9 10.9s-1.1.4-3 .4-2.9-.4-2.9-.4l15.5-43.7s1.6-.4 3.7-.4zm-.3 6.9s-.6 2.5-1.6 5.6l-5.7 15.7h14.7L76.6 23c-1.1-3.2-1.6-5.6-1.6-5.6h-.2zm29.7 37.2s-1.1.4-3.1.4c-2.2 0-3.1-.4-3.1-.4V9.1s.9-.4 3.1-.4c2 0 3.1.4 3.1.4v45.5zM116 40.7c.5 7.4 3.5 9.7 8.6 9.7 4.4 0 7.3-1.8 7.3-1.8 1.1 1 1.9 2.7 2 4.5 0 0-3.5 2.6-10.3 2.6-9.5 0-14-5.9-14-17.1 0-11.7 5.5-16.7 13.7-16.7 7.6 0 12.3 4.2 12.3 12.4 0 3.9-.7 6.4-.7 6.4H116zm7.4-13.9c-4 0-6.9 2.7-7.4 9.5h13.2c.1-.5.2-1.5.2-2.8.1-3.6-1.4-6.7-6-6.7zm28.4-4.9c9 0 11.8 4 11.8 12v20.7s-.7.4-2.4.4c-1.5 0-2.5-.4-2.5-.4l-.9-4c-1.6 3.3-5 5-9.7 5-5.8 0-9.6-3.4-9.6-10.3 0-6.7 4.1-9.7 11.9-9.7 2.8 0 5.4.2 7.1.4v-2.3c0-4.2-1.6-6.6-6.4-6.6-4.3 0-8.3 1.5-8.3 1.5-.1-.1-.8-.6-1.4-1.9-.6-1.3-.4-2.5-.4-2.6 0 .1 4.6-2.2 10.8-2.2zm-.6 17.9c-4.1 0-6.3 1.6-6.3 5.5 0 4 2 5.6 5.4 5.6 4.9 0 7.2-4.1 7.2-8.5v-2.2c-1.5-.1-4-.4-6.3-.4zm30.5-31.1c4.1 0 6.8 1.3 6.8 1.3-.1 1.7-.6 3.1-1.6 4.3 0 0-1.9-.7-4.8-.7-3.5 0-4.6 1.6-4.6 4.9v4h7.7c.2.7.3 1.5.3 2.4 0 .8-.1 1.5-.3 2.2h-7.7v27.5s-1.1.4-3.1.4c-2.2 0-3.1-.4-3.1-.4V27.2h-4.1c-.1-.7-.3-1.5-.3-2.4s.1-1.7.3-2.3h4.1v-3.7c.1-6 2.5-10.1 10.4-10.1zm15.5 7.6s-1.1.4-3.2.4c-2.2 0-3.2-.4-3.2-.4v-5.8s1-.4 3.2-.4c2.1 0 3.2.4 3.2.4v5.8zm-.1 38.3s-1.1.4-3.1.4c-2.2 0-3.1-.4-3.1-.4V22.9s.9-.4 3.1-.4c2 0 3.1.4 3.1.4v31.7zm17.6-32.7c9 0 11.8 4 11.8 12v20.7s-.7.4-2.4.4c-1.5 0-2.5-.4-2.5-.4l-.9-4c-1.6 3.3-5 5-9.7 5-5.8 0-9.6-3.4-9.6-10.3 0-6.7 4.1-9.7 11.9-9.7 2.8 0 5.4.2 7.1.4v-2.3c0-4.2-1.6-6.6-6.4-6.6-4.3 0-8.3 1.5-8.3 1.5-.1-.1-.8-.6-1.4-1.9-.6-1.3-.4-2.5-.4-2.6 0 .1 4.6-2.2 10.8-2.2zm-.6 17.9c-4.1 0-6.3 1.6-6.3 5.5 0 4 2 5.6 5.4 5.6 4.9 0 7.2-4.1 7.2-8.5v-2.2c-1.5-.1-3.9-.4-6.3-.4z" fill="#474868"/><path d="M266.4 10.9s1.1-.4 3.2-.4 3.2.4 3.2.4v43.7s-1.1.4-3.1.4c-2.4 0-3.2-.4-3.2-.4V35h-18.7v19.7s-1.1.4-3.2.4c-2.2 0-3.2-.4-3.2-.4V10.9s1.1-.4 3.1-.4c2.1 0 3.2.4 3.2.4v18.6h18.6V10.9h.1zm18.7 29.8c.5 7.4 3.5 9.7 8.6 9.7 4.4 0 7.3-1.8 7.3-1.8 1.1 1 1.9 2.7 2 4.5 0 0-3.5 2.6-10.3 2.6-9.5 0-14-5.9-14-17.1 0-11.7 5.5-16.7 13.7-16.7 7.6 0 12.3 4.2 12.3 12.4 0 3.9-.7 6.4-.7 6.4h-18.9zm7.4-13.9c-4 0-6.9 2.7-7.4 9.5h13.2c.1-.5.2-1.5.2-2.8 0-3.6-1.5-6.7-6-6.7zm28.4-4.9c9 0 11.8 4 11.8 12v20.7s-.7.4-2.4.4c-1.5 0-2.5-.4-2.5-.4l-.9-4c-1.6 3.3-5 5-9.7 5-5.8 0-9.6-3.4-9.6-10.3 0-6.7 4.1-9.7 11.9-9.7 2.8 0 5.4.2 7.1.4v-2.3c0-4.2-1.6-6.6-6.4-6.6-4.3 0-8.3 1.5-8.3 1.5-.1-.1-.8-.6-1.4-1.9-.6-1.3-.4-2.5-.4-2.6-.1.1 4.6-2.2 10.8-2.2zm-.7 17.9c-4.1 0-6.3 1.6-6.3 5.5 0 4 2 5.6 5.4 5.6 4.9 0 7.2-4.1 7.2-8.5v-2.2c-1.4-.1-3.9-.4-6.3-.4zm25 14.8s-1.1.4-3.1.4c-2.2 0-3.1-.4-3.1-.4V9.1s.9-.4 3.1-.4c2 0 3.1.4 3.1.4v45.5zm15.2-11.2c0 5.6 1.8 7.3 6.2 7.3 1.2 0 2.6-.2 2.6-.2s.4 1.1.4 2.5-.3 2.2-.3 2.2c-1.1.3-2.8.6-4.5.6-7.6 0-10.6-4.1-10.6-12V27.2h-4.8s-.4-.9-.4-2.3c0-1.5.4-2.4.4-2.4h4.8v-5.6c1.6-1 3.9-1.4 6.2-1.2v6.9h8s.4.8.4 2.3c0 1.4-.4 2.4-.4 2.4h-8v16.1zm38.1 11.2s-1.1.4-3.1.4c-2.1 0-3.1-.4-3.1-.4V32.4c0-3.5-1.8-5.4-5.8-5.4-2.7 0-5.4 1.5-7 4v23.8s-1.1.4-3.1.4c-2.2 0-3.1-.4-3.1-.4V9.1s.9-.4 3.1-.4c2 0 3.1.4 3.1.4v16.7c2.2-2.5 5.4-3.9 9.3-3.9 6.2 0 9.6 3.8 9.6 9.3v23.4h.1z" fill="#77859b"/></svg>