<?xml version="1.0" encoding="UTF-8"?>
<svg width="252px" height="44px" viewBox="0 0 252 44" version="1.1" xmlns="http://www.w3.org/2000/svg" xmlns:xlink="http://www.w3.org/1999/xlink">
    <title>Tilray-logo</title>
    <defs>
        <polygon id="path-1" points="2.84217094e-14 0 98.888 0 98.888 29.959 2.84217094e-14 29.959"></polygon>
    </defs>
    <g id="Batch-2" stroke="none" stroke-width="1" fill="none" fill-rule="evenodd">
        <g id="5.0-About-Tilray" transform="translate(-421.000000, -4672.000000)">
            <g id="4brands-section" transform="translate(-1.000000, 4603.000000)">
                <g id="Tilray-logo" transform="translate(422.000000, 69.000000)">
                    <polyline id="Fill-1" fill="#5D5E5F" points="76.717 9.867 110.63 9.867 110.63 15.147 97.904 15.147 97.904 39.826 89.129 39.826 89.129 15.147 76.717 15.147 76.717 9.867"></polyline>
                    <polygon id="Fill-2" fill="#5D5E5F" points="112.546 39.826 121.323 39.826 121.323 9.867 112.546 9.867"></polygon>
                    <path d="M126.767,9.867 L135.543,9.867 L135.543,32.418 C135.543,34.587 137.613,34.546 139.429,34.546 L150.861,34.546 L150.861,39.826 L136.294,39.826 C131.342,39.826 126.767,38.598 126.767,34.014 L126.767,9.867" id="Fill-3" fill="#5D5E5F"></path>
                    <g id="Group-7" transform="translate(152.893000, 9.867000)">
                        <mask id="mask-2" fill="white">
                            <use xlink:href="#path-1"></use>
                        </mask>
                        <g id="Clip-5"></g>
                        <path d="M45.542,18.254 L51.059,7.531 L56.198,18.254 L45.542,18.254 Z M19.245,13.547 L8.838,13.547 L8.838,5.075 L19.245,5.075 C22.003,5.075 23.758,5.935 23.758,9.332 C23.758,12.974 22.254,13.547 19.245,13.547 L19.245,13.547 Z M55.947,0 L45.98,0 L31.929,27.19 L25.263,18.172 C27.833,17.64 32.596,16.74 32.596,9.332 C32.596,2.17 27.268,0 20.059,0 L2.84217094e-14,0 L2.84217094e-14,29.959 L8.775,29.959 L8.775,18.622 L16.485,18.622 L24.07,29.959 L39.9,29.959 L43.223,23.329 L58.268,23.329 L61.526,29.959 L70.866,29.959 L55.947,0 L55.947,0 Z" id="Fill-4" fill="#5D5E5F" mask="url(#mask-2)"></path>
                        <polyline id="Fill-6" fill="#5D5E5F" mask="url(#mask-2)" points="70.556 0 79.52 14.365 89.36 0 98.889 0 83.782 20.669 83.782 29.959 75.006 29.959 75.006 20.669 61.027 0 70.556 0"></polyline>
                    </g>
                    <path d="M38.919,22.334 L55.925,11.692 L48.492,1.829 L37.787,21.564 C38.184,21.789 38.561,22.048 38.919,22.334" id="Fill-8" fill="#E09E5C"></path>
                    <path d="M41.749,26.374 L64.835,23.518 L57.44,13.704 L41.174,25.048 C41.403,25.475 41.596,25.918 41.749,26.374" id="Fill-9" fill="#E09E5C"></path>
                    <g id="Group-13">
                        <path d="M41.953,31.237 L75.884,38.18 L66.533,25.771 L42.18,29.775 C42.146,30.271 42.069,30.76 41.953,31.237" id="Fill-10" fill="#E09E5C"></path>
                        <path d="M77.518,40.509 C67.062,39.007 44.342,35.718 39.196,34.77 C33.959,33.804 30.968,31.561 30.968,27.017 C30.968,24.617 32.215,23.186 33.636,20.953 C38.407,13.447 47.113,0 47.113,0 L37.667,0 L0,43.404 L79.699,43.404 L77.518,40.509" id="Fill-12" fill="#1C4164"></path>
                    </g>
                    <path d="M242.047,36.318 L242.442,36.318 C242.901,36.318 243.271,36.164 243.271,35.794 C243.271,35.465 243.032,35.247 242.507,35.247 C242.288,35.247 242.135,35.269 242.047,35.291 L242.047,36.318 Z M242.027,38.35 L241.195,38.35 L241.195,34.766 C241.523,34.7 241.983,34.657 242.573,34.657 C243.249,34.657 243.556,34.766 243.818,34.919 C244.014,35.073 244.168,35.356 244.168,35.706 C244.168,36.099 243.863,36.406 243.425,36.537 L243.425,36.581 C243.775,36.712 243.971,36.974 244.08,37.454 C244.189,38.001 244.254,38.22 244.342,38.35 L243.447,38.35 C243.337,38.22 243.271,37.891 243.163,37.477 C243.097,37.083 242.879,36.908 242.419,36.908 L242.027,36.908 L242.027,38.35 Z M239.82,36.471 C239.82,38.066 240.998,39.333 242.616,39.333 C244.189,39.333 245.348,38.066 245.348,36.493 C245.348,34.897 244.189,33.608 242.594,33.608 C240.998,33.608 239.82,34.897 239.82,36.471 L239.82,36.471 Z M246.266,36.471 C246.266,38.504 244.67,40.098 242.594,40.098 C240.54,40.098 238.901,38.504 238.901,36.471 C238.901,34.482 240.54,32.886 242.594,32.886 C244.67,32.886 246.266,34.482 246.266,36.471 L246.266,36.471 Z" id="Fill-14" fill="#5D5E5F"></path>
                </g>
            </g>
        </g>
    </g>
</svg>